<svg width="286" height="39" viewBox="0 0 286 39" fill="none" xmlns="http://www.w3.org/2000/svg">
<path d="M0.898438 1.79297V9.00293H9.81543V38H17.1152V9.00293H26.0098V1.79297H0.898438ZM29.1543 1.70312V38.0449H50.9863V30.8125H36.4316V23.5127H47.3477V16.2578H36.4316V8.95801H50.9863V1.70312H29.1543ZM52.7832 38H60.6445L63.0928 32.4971H75.4912L77.9395 38H85.8232L69.292 1.05176L52.7832 38ZM65.9678 26.0732L69.3145 18.4141L72.6162 26.0732H65.9678ZM88.9902 0.939453V38H96.2676V22.9961L106.734 37.416L117.179 22.9961V38H124.456V0.939453L106.734 25.2646L88.9902 0.939453ZM128.971 0.939453V38H136.248V22.9961L146.715 37.416L157.159 22.9961V38H164.437V0.939453L146.715 25.2646L128.971 0.939453ZM167.604 38H175.465L177.913 32.4971H190.312L192.76 38H200.644L184.112 1.05176L167.604 38ZM180.788 26.0732L184.135 18.4141L187.437 26.0732H180.788ZM203.811 1.79297V38H211.065V22.8164L221.622 38H230.472L218.028 20.1885L228.742 1.79297H220.342L211.065 17.8076V1.79297H203.811ZM233.639 1.70312V38.0449H255.471V30.8125H240.916V23.5127H251.832V16.2578H240.916V8.95801H255.471V1.70312H233.639ZM258.615 38H265.893V21.9854L276.292 38H285.187L276.764 24.8828C278.83 24.0742 279.841 23.333 281.099 21.5361C282.626 19.3799 283.39 17.0889 283.39 14.6406V13.6973C283.39 9.69922 282.109 7.7002 279.908 5.47656C277.707 3.32031 274.45 1.79297 270.43 1.79297H258.615V38ZM271.126 19.0205H268.7V18.998H265.893V9.00293H269.98C271.732 9.00293 273.507 9.54199 274.473 10.4404C275.416 11.4512 275.91 12.6191 275.91 13.9443C275.91 16.6846 273.776 19.0205 271.126 19.0205Z" fill="#2C3590"/>
</svg>
