<svg width="187" height="26" viewBox="0 0 187 26" fill="none" xmlns="http://www.w3.org/2000/svg">
<style>
  path {
    margin: 50px:
  }
</style>
<path d="M0.587791 1.31201V6.02904H6.42162V25H11.1974V6.02904H17.0166V1.31201H0.587791ZM19.0738 1.25323V25.0294H33.3572V20.2977H23.8349V15.5219H30.9766V10.7755H23.8349V5.99965H33.3572V1.25323H19.0738ZM34.5327 25H39.6759L41.2776 21.3998H49.3892L50.9909 25H56.1488L45.3334 0.827084L34.5327 25ZM43.1586 17.1971L45.3481 12.1862L47.5082 17.1971H43.1586ZM58.2207 0.75361V25H62.9818V15.1839L69.8296 24.6179L76.6627 15.1839V25H81.4238V0.75361L69.8296 16.6681L58.2207 0.75361ZM84.3774 0.75361V25H89.1385V15.1839L95.9863 24.6179L102.819 15.1839V25H107.58V0.75361L95.9863 16.6681L84.3774 0.75361ZM109.652 25H114.796L116.397 21.3998H124.509L126.111 25H131.268L120.453 0.827084L109.652 25ZM118.278 17.1971L120.468 12.1862L122.628 17.1971H118.278ZM133.34 1.31201V25H138.087V15.0663L144.993 25H150.783L142.642 13.347L149.652 1.31201H144.156L138.087 11.7894V1.31201H133.34ZM152.855 1.25323V25.0294H167.138V20.2977H157.616V15.5219H164.758V10.7755H157.616V5.99965H167.138V1.25323H152.855ZM169.196 25H173.957V14.5226L180.761 25H186.58L181.069 16.4182C182.421 15.8892 183.082 15.4043 183.905 14.2287C184.904 12.818 185.404 11.3192 185.404 9.71743V9.10025C185.404 6.48457 184.566 5.17674 183.126 3.72196C181.686 2.31126 179.556 1.31201 176.925 1.31201H169.196V25ZM177.381 12.5829H175.794V12.5682H173.957V6.02904H176.631C177.777 6.02904 178.938 6.38171 179.57 6.9695C180.187 7.63077 180.511 8.3949 180.511 9.26189C180.511 11.0547 179.115 12.5829 177.381 12.5829Z" fill="white"/>
</svg>
