<svg width="18" height="18" viewBox="0 0 18 18" fill="#2C3590" xmlns="http://www.w3.org/2000/svg">
<g clip-path="url(#clip0)">
<path d="M15.6053 1.58284C14.3988 0.634259 11.8169 0.0373299 11.7074 0.0125838C11.5055 -0.0333933 11.3046 0.0930086 11.2586 0.294914C11.2524 0.322086 11.2493 0.34989 11.2493 0.377764C11.2493 0.883934 10.2107 1.50259 8.99961 1.50259C7.78857 1.50259 6.74997 0.883934 6.74997 0.377764C6.75004 0.263665 6.69816 0.155753 6.60898 0.0845724C6.52082 0.0112832 6.40342 -0.0164858 6.29178 0.009596C6.18229 0.0343421 3.60121 0.632009 2.39241 1.57985C1.14386 2.56519 0.788414 7.31345 0.750908 7.85112C0.740644 8.00392 0.824373 8.14761 0.962375 8.21405C1.84332 8.62201 2.78515 8.8829 3.75042 8.98641V16.8752C3.75067 17.0138 3.82737 17.141 3.9499 17.2059C4.01064 17.2389 5.48265 18 8.99961 18C12.5166 18 13.9886 17.2389 14.0493 17.2059C14.1718 17.141 14.2486 17.0138 14.2488 16.8752V8.98641C15.2138 8.88282 16.1554 8.6219 17.0361 8.21405C17.1744 8.14782 17.2584 8.00409 17.2483 7.85112C17.2108 7.31345 16.8554 2.56519 15.6053 1.58284Z" fill="#2C3590"/>
<path d="M4.12536 9.0022C3.91829 9.0022 3.75041 8.83432 3.75041 8.62724V6.3776C3.78106 5.66091 3.55388 4.95695 3.11 4.39341C2.96616 4.24448 2.97028 4.00711 3.11921 3.86324C3.26452 3.72292 3.49487 3.72292 3.64014 3.86324C4.2312 4.56428 4.53807 5.4614 4.50025 6.3776V8.62724C4.50032 8.83432 4.33244 9.0022 4.12536 9.0022Z" fill="#2C3590"/>
<path d="M13.8738 9.00141C13.6667 9.00141 13.4989 8.83354 13.4989 8.62646V6.37682C13.4606 5.46048 13.7673 4.56308 14.3582 3.86172C14.5021 3.71278 14.7394 3.70864 14.8884 3.85251C15.0373 3.99638 15.0414 4.23372 14.8976 4.38269C14.8946 4.38581 14.8915 4.38887 14.8884 4.39189C14.4446 4.95575 14.2177 5.65999 14.2488 6.37682V8.62646C14.2488 8.83354 14.0809 9.00141 13.8738 9.00141Z" fill="#2C3590"/>
<path d="M11.8627 0.0890585C11.777 0.0172105 11.6634 -0.0119997 11.5537 0.00958282C10.71 0.180661 9.85728 0.303583 8.99964 0.377786C8.14196 0.303618 7.28924 0.180696 6.44555 0.00958282C6.33585 -0.0118943 6.22231 0.017316 6.13661 0.0890585C6.05035 0.160133 6.00033 0.266007 6.00012 0.377751C6.00012 1.50257 7.55086 2.25244 8.99964 2.25244C10.4484 2.25244 11.9992 1.50257 11.9992 0.377751C11.999 0.266007 11.9489 0.160133 11.8627 0.0890585Z" fill="#1976D2"/>
<path d="M13.8739 9.00143C13.6668 9.00143 13.4989 8.83355 13.4989 8.62647C13.4989 8.4194 13.6668 8.25152 13.8739 8.25152C14.7725 8.20688 15.6556 7.99981 16.4805 7.64036C16.3305 5.71466 15.8558 2.73163 15.1427 2.17298C14.146 1.55205 13.0534 1.1005 11.9092 0.836693C11.5567 1.69982 10.2407 2.25246 8.99965 2.25246C7.75862 2.25246 6.44254 1.69978 6.09086 0.83592C4.94681 1.10067 3.85429 1.55243 2.85738 2.17295C2.14421 2.73167 1.67256 5.7147 1.51958 7.64039C2.34418 7.99974 3.22703 8.20681 4.12541 8.25156C4.33248 8.25156 4.50036 8.41944 4.50036 8.62651C4.50036 8.83358 4.33248 9.00146 4.12541 9.00146C3.03047 8.94564 1.95665 8.67853 0.963149 8.21482C0.824866 8.1486 0.740821 8.00487 0.750945 7.85189C0.787677 7.31272 1.14164 2.56298 2.39318 1.58287C3.59523 0.843969 4.91324 0.313124 6.29182 0.0125852C6.40346 -0.012899 6.52061 0.0147997 6.60902 0.0875616C6.69735 0.158109 6.74916 0.264721 6.75001 0.377766C6.75001 0.883936 7.7886 1.50259 8.99965 1.50259C10.2107 1.50259 11.2493 0.883936 11.2493 0.377766C11.2495 0.170693 11.4176 0.00298908 11.6246 0.00323513C11.6525 0.00327028 11.6803 0.0063987 11.7075 0.0125852C13.0863 0.313018 14.4046 0.843899 15.6069 1.58284C16.8584 2.56368 17.2131 7.31342 17.2491 7.85186C17.2594 8.00466 17.1756 8.14835 17.0376 8.21479C16.0437 8.67867 14.9693 8.94582 13.8739 9.00143Z" fill="black"/>
<path d="M8.99963 18C5.47518 18 4.00992 17.2381 3.94918 17.2059C3.82696 17.1408 3.75054 17.0136 3.75047 16.8752V6.37682C3.78112 5.66013 3.55395 4.95617 3.11006 4.39263C2.96623 4.2437 2.97034 4.00633 3.11927 3.86246C3.26459 3.72213 3.49493 3.72213 3.64021 3.86246C4.23126 4.5635 4.53813 5.46062 4.50031 6.37682V16.6292C5.95168 17.1 7.47494 17.3102 8.9996 17.2501C10.5243 17.3107 12.0477 17.1002 13.4989 16.6285V6.37682C13.4607 5.46048 13.7673 4.56308 14.3583 3.86172C14.5021 3.71278 14.7395 3.70864 14.8884 3.85251C15.0374 3.99638 15.0415 4.23372 14.8976 4.38269C14.8946 4.38581 14.8916 4.38887 14.8884 4.3919C14.4447 4.95575 14.2177 5.65999 14.2488 6.37682V16.8752C14.2487 17.0136 14.1723 17.1408 14.0501 17.2059C13.9893 17.2381 12.5241 18 8.99963 18Z" fill="black"/>
<path d="M8.99965 1.12768C8.09484 1.05123 7.19505 0.92381 6.30458 0.745982C6.10053 0.710761 5.96365 0.5168 5.99887 0.312715C6.03409 0.108665 6.22805 -0.0282117 6.43214 0.00700928C6.43664 0.00778259 6.4411 0.00862621 6.44557 0.00957528C7.28929 0.180408 8.14204 0.30333 8.99965 0.377779C9.85729 0.30333 10.71 0.180408 11.5537 0.00957528C11.7564 -0.0330625 11.9552 0.0966435 11.9978 0.299287C12.0405 0.501931 11.9108 0.700743 11.7081 0.743381C11.7037 0.74433 11.6992 0.745174 11.6947 0.745947C10.8043 0.92381 9.90446 1.05123 8.99965 1.12768Z" fill="black"/>
</g>
<defs>
<clipPath id="clip0">
<rect width="18" height="18" fill="#2C3590"/>
</clipPath>
</defs>
</svg>
