<svg width="402" height="220" viewBox="0 0 402 220" fill="none" xmlns="http://www.w3.org/2000/svg">
<g clip-path="url(#clip0)">
<path d="M374.597 214.923C374.078 216.331 373.432 217.683 372.668 218.962C372.456 219.315 372.233 219.663 371.996 220H352.296C352.158 219.891 352.025 219.777 351.886 219.668C351.194 219.611 350.506 219.538 349.834 219.46C349.903 219.398 349.977 219.336 350.047 219.273C349.691 219.305 349.335 219.336 348.979 219.351C349.26 219.387 349.547 219.424 349.834 219.46C349.621 219.642 349.404 219.824 349.181 220H348.321L348.899 219.351C348.44 219.367 347.985 219.377 347.525 219.367L348.964 218.962L350.516 218.526C350.576 218.578 350.64 218.63 350.699 218.682C353.349 216.237 355.504 213.257 357.035 209.921C358.566 206.584 359.443 202.958 359.613 199.259C359.782 195.56 359.242 191.862 358.023 188.387C356.805 184.911 354.933 181.728 352.519 179.027C356.404 181.764 359.732 185.285 362.309 189.386C364.885 193.486 366.659 198.084 367.526 202.911C367.972 205.271 368.039 207.692 367.724 210.075C367.897 209.872 368.07 209.67 368.238 209.462C370.742 206.277 372.548 202.552 373.525 198.551C374.503 194.55 374.629 190.373 373.895 186.315C375.812 190.797 376.862 195.634 376.983 200.545C377.103 205.456 376.292 210.344 374.597 214.923Z" fill="#E6E6E6"/>
<path d="M276.328 41.3028C283.997 41.3028 290.213 34.7763 290.213 26.7254C290.213 18.6745 283.997 12.1479 276.328 12.1479C268.659 12.1479 262.442 18.6745 262.442 26.7254C262.442 34.7763 268.659 41.3028 276.328 41.3028Z" fill="#2F2E41"/>
<path d="M321.356 213.924L315.294 213.923L312.41 189.376L321.357 189.376L321.356 213.924Z" fill="#FFB8B8"/>
<path d="M310.964 212.105H322.655V219.833H303.603C303.603 218.818 303.793 217.813 304.163 216.876C304.533 215.938 305.075 215.086 305.759 214.368C306.442 213.651 307.254 213.082 308.147 212.693C309.04 212.305 309.997 212.105 310.964 212.105Z" fill="#2F2E41"/>
<path d="M259.517 213.09L253.665 211.433L256.966 186.944L265.604 189.39L259.517 213.09Z" fill="#FFB8B8"/>
<path d="M249.935 208.495L261.223 211.69L259.306 219.151L240.911 213.944C241.419 211.965 242.656 210.28 244.348 209.258C246.04 208.236 248.05 207.961 249.935 208.495Z" fill="#2F2E41"/>
<path d="M271.005 100.341L252.954 207.729L262.211 209.672L291.37 133.869L313.124 209.186L324.232 207.728C324.232 207.728 319.141 99.8554 302.941 90.623L271.005 100.341Z" fill="#2F2E41"/>
<path d="M242.378 138.757C243.028 138.417 243.6 137.931 244.053 137.334C244.506 136.737 244.828 136.043 244.998 135.301C245.167 134.559 245.18 133.787 245.034 133.039C244.889 132.291 244.589 131.586 244.156 130.973L254.111 115.648L244.93 115.498L236.884 130.075C235.951 130.907 235.342 132.069 235.171 133.341C235 134.614 235.28 135.907 235.957 136.978C236.635 138.048 237.662 138.82 238.845 139.148C240.029 139.476 241.286 139.337 242.378 138.757Z" fill="#FFB8B8"/>
<path d="M308.102 119.806C308.753 119.466 309.325 118.981 309.777 118.384C310.23 117.786 310.553 117.092 310.722 116.35C310.892 115.608 310.904 114.836 310.759 114.088C310.613 113.341 310.313 112.636 309.88 112.023L319.835 96.697L310.654 96.5474L302.608 111.124C301.676 111.956 301.066 113.118 300.896 114.391C300.725 115.663 301.005 116.957 301.682 118.027C302.359 119.097 303.387 119.869 304.57 120.197C305.753 120.525 307.01 120.386 308.102 119.806V119.806Z" fill="#FFB8B8"/>
<path d="M276.681 44.1888C283.388 44.1888 288.826 38.4806 288.826 31.439C288.826 24.3975 283.388 18.6892 276.681 18.6892C269.974 18.6892 264.537 24.3975 264.537 31.439C264.537 38.4806 269.974 44.1888 276.681 44.1888Z" fill="#FFB8B8"/>
<path d="M302.941 51.264C302.479 49.3203 294.61 49.8063 294.61 49.8063C294.61 49.8063 285.75 47.6678 285.834 47.9352C278.368 47.3318 269.26 50.2746 267.933 50.7209C265.219 51.507 260.034 53.9115 256.295 55.68C255.774 55.9263 255.367 56.3783 255.163 56.9378C254.958 57.4972 254.972 58.119 255.201 58.6677L266.608 86.0069L268.228 103.743L305.719 91.5949C296.462 87.7076 303.404 53.2076 302.941 51.264Z" fill="#2C3590"/>
<path d="M299.702 51.7498L302.779 50.9385L319.604 85.7639L320.53 105.687L309.884 96.9402V89.1656L298.776 74.1021L299.702 51.7498Z" fill="#2C3590"/>
<path d="M259.202 54.4224L255.639 56.0848C255.454 56.1714 255.292 56.3045 255.167 56.4725C255.042 56.6405 254.958 56.8381 254.923 57.0481L247.863 99.3695L240.92 120.75L250.177 125.609L260.822 98.8835L264.525 79.447L259.202 54.4224Z" fill="#2C3590"/>
<path d="M263.945 25.4286C266.41 24.5789 269.01 25.911 271.418 26.9251C273.791 27.9245 276.327 28.6446 278.879 28.4872C281.432 28.3298 284.013 27.1981 285.556 25.0578C287.099 22.9175 287.371 19.7098 285.844 17.5572C284.838 16.1401 283.233 15.3316 281.627 14.8051C278.194 13.6802 274.351 13.6413 271.088 15.2284C267.825 16.8154 265.266 20.168 264.997 23.933" fill="#2F2E41"/>
<path d="M275.958 15.2729C275.13 9.38825 278.2 3.2784 282.391 1.08661C286.582 -1.10517 291.498 0.187784 295.273 3.45162C299.048 6.71546 301.8 11.731 303.849 17.0626C305.897 22.3941 307.315 28.1046 308.984 33.665C310.466 38.6033 312.206 43.5446 315.021 47.3215C317.836 51.0983 321.93 53.5561 325.852 52.5183C322.63 57.0671 316.701 56.2795 313.023 52.3887C309.346 48.4979 307.434 42.4166 305.929 36.4969C304.423 30.5773 303.114 24.3835 300.202 19.478C295.023 10.751 284.859 8.12917 277.6 13.6477" fill="#2F2E41"/>
<path d="M402 218.962H0V220H402V218.962Z" fill="#3F3D56"/>
<path d="M210.909 119.349H35.4611C34.0563 119.347 32.7094 118.761 31.716 117.718C30.7226 116.675 30.1639 115.261 30.1624 113.786V69.9015C30.1639 68.4266 30.7226 67.0126 31.716 65.9697C32.7094 64.9268 34.0563 64.3402 35.4611 64.3386H210.909C212.314 64.3402 213.661 64.9268 214.654 65.9697C215.648 67.0126 216.206 68.4266 216.208 69.9015V113.786C216.206 115.261 215.648 116.675 214.654 117.718C213.661 118.761 212.314 119.347 210.909 119.349ZM35.4611 65.5748C34.3685 65.5762 33.321 66.0325 32.5484 66.8436C31.7758 67.6547 31.3412 68.7544 31.3399 69.9015V113.786C31.3412 114.933 31.7758 116.033 32.5484 116.844C33.321 117.655 34.3685 118.111 35.4611 118.113H210.909C212.002 118.111 213.049 117.655 213.822 116.844C214.594 116.033 215.029 114.933 215.03 113.786V69.9015C215.029 68.7544 214.594 67.6547 213.822 66.8436C213.049 66.0325 212.002 65.5762 210.909 65.5748H35.4611Z" fill="#3F3D56"/>
<path d="M202.372 110.078H43.9979C43.9205 110.078 43.8437 110.062 43.7721 110.031C43.7005 110 43.6354 109.955 43.5805 109.897C43.5257 109.84 43.4821 109.771 43.4525 109.696C43.4228 109.621 43.4075 109.541 43.4075 109.459C43.4075 109.378 43.4228 109.298 43.4525 109.222C43.4821 109.147 43.5257 109.079 43.5805 109.022C43.6354 108.964 43.7005 108.919 43.7721 108.888C43.8437 108.857 43.9205 108.841 43.9979 108.841H202.372C202.45 108.841 202.526 108.857 202.598 108.888C202.67 108.919 202.735 108.964 202.789 109.022C202.844 109.079 202.888 109.147 202.918 109.222C202.947 109.298 202.963 109.378 202.963 109.459C202.963 109.541 202.947 109.621 202.918 109.696C202.888 109.771 202.844 109.84 202.789 109.897C202.735 109.955 202.67 110 202.598 110.031C202.526 110.062 202.45 110.078 202.372 110.078Z" fill="#E6E6E6"/>
<path d="M60.7776 89.6807H47.8251C47.6692 89.6812 47.5199 89.7465 47.4099 89.8624C47.2998 89.9782 47.238 90.1352 47.238 90.2988C47.238 90.4624 47.2998 90.6193 47.4099 90.7352C47.5199 90.8511 47.6692 90.9164 47.8251 90.9169H53.7126V101.846C53.7022 102.639 53.98 103.405 54.4892 103.99C54.9985 104.574 55.7009 104.933 56.4534 104.993C56.4902 104.995 56.5282 104.995 56.5667 104.995C57.0295 104.986 57.4833 104.859 57.8887 104.625C58.2941 104.39 58.639 104.055 58.8935 103.649C58.9869 103.518 59.0269 103.354 59.0047 103.191C58.9825 103.029 58.9 102.883 58.7752 102.785C58.6504 102.687 58.4936 102.645 58.3392 102.668C58.1848 102.691 58.0455 102.777 57.9517 102.908C57.8017 103.17 57.5891 103.386 57.3349 103.535C57.0808 103.684 56.794 103.761 56.5029 103.758C56.053 103.714 55.6359 103.492 55.3363 103.137C55.0368 102.782 54.8772 102.32 54.8901 101.846V90.9168H60.7776C60.8551 90.9171 60.9318 90.9013 61.0035 90.8703C61.0751 90.8394 61.1402 90.7939 61.195 90.7365C61.2499 90.679 61.2934 90.6108 61.3231 90.5357C61.3528 90.4606 61.3681 90.3801 61.3681 90.2988C61.3681 90.2174 61.3528 90.1369 61.3231 90.0618C61.2934 89.9867 61.2499 89.9185 61.195 89.8611C61.1402 89.8036 61.0751 89.7582 61.0035 89.7272C60.9318 89.6962 60.8551 89.6804 60.7776 89.6807L60.7776 89.6807Z" fill="#2C3590"/>
<path d="M104.934 143.455C107.535 143.455 109.644 141.241 109.644 138.51C109.644 135.779 107.535 133.565 104.934 133.565C102.333 133.565 100.224 135.779 100.224 138.51C100.224 141.241 102.333 143.455 104.934 143.455Z" fill="#E6E6E6"/>
<path d="M123.185 143.455C125.786 143.455 127.895 141.241 127.895 138.51C127.895 135.779 125.786 133.565 123.185 133.565C120.584 133.565 118.475 135.779 118.475 138.51C118.475 141.241 120.584 143.455 123.185 143.455Z" fill="#2C3590"/>
<path d="M141.436 143.455C144.038 143.455 146.146 141.241 146.146 138.51C146.146 135.779 144.038 133.565 141.436 133.565C138.835 133.565 136.726 135.779 136.726 138.51C136.726 141.241 138.835 143.455 141.436 143.455Z" fill="#E6E6E6"/>
<path d="M63.5265 104.534C63.7188 104.527 63.9009 104.442 64.0346 104.297C64.1683 104.152 64.243 103.957 64.243 103.755C64.243 103.554 64.1683 103.359 64.0346 103.214C63.9009 103.069 63.7188 102.984 63.5265 102.977C63.3342 102.984 63.1521 103.069 63.0184 103.214C62.8848 103.359 62.8101 103.554 62.8101 103.755C62.8101 103.957 62.8848 104.152 63.0184 104.297C63.1521 104.442 63.3342 104.527 63.5265 104.534Z" fill="#3F3D56"/>
<path d="M68.2365 104.534C68.4287 104.527 68.6109 104.442 68.7446 104.297C68.8782 104.152 68.9529 103.957 68.9529 103.755C68.9529 103.554 68.8782 103.359 68.7446 103.214C68.6109 103.069 68.4287 102.984 68.2365 102.977C68.0442 102.984 67.862 103.069 67.7284 103.214C67.5947 103.359 67.52 103.554 67.52 103.755C67.52 103.957 67.5947 104.152 67.7284 104.297C67.862 104.442 68.0442 104.527 68.2365 104.534Z" fill="#3F3D56"/>
<path d="M72.9467 104.534C73.1389 104.527 73.3211 104.442 73.4547 104.297C73.5884 104.152 73.6631 103.957 73.6631 103.755C73.6631 103.554 73.5884 103.359 73.4547 103.214C73.3211 103.069 73.1389 102.984 72.9467 102.977C72.7544 102.984 72.5722 103.069 72.4386 103.214C72.3049 103.359 72.2302 103.554 72.2302 103.755C72.2302 103.957 72.3049 104.152 72.4386 104.297C72.5722 104.442 72.7544 104.527 72.9467 104.534Z" fill="#3F3D56"/>
</g>
<defs>
<clipPath id="clip0">
<rect width="402" height="220" fill="white"/>
</clipPath>
</defs>
</svg>
