<svg width="391" height="224" viewBox="0 0 391 224" fill="none" xmlns="http://www.w3.org/2000/svg">
<g clip-path="url(#clip0)">
<path d="M387.167 223.774C396.641 192.96 388.028 160.552 367.114 137.152L187.56 178.157L358.164 128.217C273.407 55.9226 137.183 123.92 164.924 223.454L387.167 223.774Z" fill="#E6E6E6"/>
<path d="M78.7647 115.139C106.508 115.139 128.999 95.5783 128.999 71.4496C128.999 47.3209 106.508 27.7607 78.7647 27.7607C51.021 27.7607 28.5303 47.3209 28.5303 71.4496C28.5303 95.5783 51.021 115.139 78.7647 115.139Z" fill="#E6E6E6"/>
<path d="M145.744 87.4529H109.126C106.627 74.8891 106.627 62.0455 109.126 49.4817H145.744C141.618 61.8845 141.618 75.0501 145.744 87.4529Z" fill="#FF6584"/>
<path d="M137.619 59.7667H115.336C114.951 59.7667 114.64 59.331 114.64 58.7926C114.64 58.2543 114.951 57.8186 115.336 57.8186H137.619C138.003 57.8186 138.315 58.2543 138.315 58.7926C138.315 59.331 138.003 59.7667 137.619 59.7667Z" fill="white"/>
<path d="M137.619 68.8025H115.336C114.951 68.8025 114.64 68.3669 114.64 67.8285C114.64 67.2901 114.951 66.8545 115.336 66.8545H137.619C138.003 66.8545 138.315 67.2901 138.315 67.8285C138.315 68.3669 138.003 68.8025 137.619 68.8025Z" fill="white"/>
<path d="M31.965 48.919H79.1408C82.3602 32.7329 82.3602 16.1862 79.1408 0H31.965C37.2797 15.9788 37.2797 32.9402 31.965 48.919Z" fill="#2C3590"/>
<path d="M71.6975 14.2526H42.9901C42.4947 14.2526 42.093 13.6914 42.093 12.9978C42.093 12.3042 42.4947 11.7429 42.9901 11.7429H71.6975C72.1929 11.7429 72.5946 12.3042 72.5946 12.9978C72.5946 13.6914 72.1929 14.2526 71.6975 14.2526Z" fill="white"/>
<path d="M71.6975 25.894H42.9901C42.4947 25.894 42.093 25.3327 42.093 24.6391C42.093 23.9455 42.4947 23.3843 42.9901 23.3843H71.6975C72.1929 23.3843 72.5946 23.9455 72.5946 24.6391C72.5946 25.3327 72.1929 25.894 71.6975 25.894Z" fill="white"/>
<path d="M71.6975 37.5351H42.9901C42.4947 37.5351 42.093 36.9738 42.093 36.2802C42.093 35.5866 42.4947 35.0254 42.9901 35.0254H71.6975C72.1929 35.0254 72.5946 35.5866 72.5946 36.2802C72.5946 36.9738 72.1929 37.5351 71.6975 37.5351Z" fill="white"/>
<path d="M0.801025 124.97H47.9769C51.1963 108.784 51.1963 92.2372 47.9769 76.051H0.801025C6.11576 92.0298 6.11576 108.991 0.801025 124.97Z" fill="#2C3590"/>
<path d="M40.5337 90.3037H11.8263C11.3309 90.3037 10.9292 89.7424 10.9292 89.0488C10.9292 88.3552 11.3309 87.7939 11.8263 87.7939H40.5337C41.0291 87.7939 41.4308 88.3552 41.4308 89.0488C41.4308 89.7424 41.0291 90.3037 40.5337 90.3037Z" fill="white"/>
<path d="M40.5337 101.945H11.8263C11.3309 101.945 10.9292 101.384 10.9292 100.69C10.9292 99.9963 11.3309 99.4351 11.8263 99.4351H40.5337C41.0291 99.4351 41.4308 99.9963 41.4308 100.69C41.4308 101.384 41.0291 101.945 40.5337 101.945Z" fill="white"/>
<path d="M248.157 210.079L254.96 200.148L245.347 196.804L244.466 197.783C242.265 200.229 240.299 205.398 237.626 207.408" fill="#FFB8B8"/>
<path d="M251.417 211.647L251.085 220.272C251.054 221.086 250.657 221.858 249.981 222.421C249.304 222.984 248.401 223.295 247.465 223.287L239.964 223.222H231.505C231.505 223.222 215.74 222.888 214.971 217.538C214.714 215.754 216.466 214.565 218.915 213.772C224.801 211.884 230.309 209.204 235.24 205.832C235.824 205.425 236.523 205.161 237.263 205.065C238.004 204.969 238.76 205.046 239.456 205.287L249.22 208.712C249.888 208.947 250.457 209.354 250.85 209.879C251.243 210.404 251.441 211.021 251.417 211.647Z" fill="#2F2E41"/>
<path d="M233.804 209.954C234.229 209.954 234.573 209.655 234.573 209.285C234.573 208.916 234.229 208.616 233.804 208.616C233.38 208.616 233.035 208.916 233.035 209.285C233.035 209.655 233.38 209.954 233.804 209.954Z" fill="white"/>
<path d="M236.275 207.622C236.699 207.622 237.044 207.323 237.044 206.953C237.044 206.584 236.699 206.284 236.275 206.284C235.85 206.284 235.506 206.584 235.506 206.953C235.506 207.323 235.85 207.622 236.275 207.622Z" fill="white"/>
<path d="M324.168 196.992L320.904 185.787L311.388 189.334L311.561 190.567C311.993 193.651 314.806 198.515 314.549 201.58" fill="#FFB8B8"/>
<path d="M327.734 196.083L334.371 202.256C335.053 202.889 335.422 203.729 335.4 204.596C335.378 205.463 334.968 206.288 334.256 206.895L329.06 211.325L323.079 216.527C323.079 216.527 311.66 225.985 306.766 222.675C305.134 221.571 305.406 219.653 306.494 217.586C309.137 212.6 310.858 207.282 311.594 201.829C311.672 201.213 311.937 200.627 312.361 200.129C312.786 199.631 313.354 199.24 314.009 198.995L323.828 195.365C324.485 195.122 325.212 195.06 325.911 195.189C326.61 195.317 327.246 195.63 327.734 196.083Z" fill="#2F2E41"/>
<path d="M313.374 205.926C313.798 205.926 314.143 205.627 314.143 205.257C314.143 204.888 313.798 204.589 313.374 204.589C312.949 204.589 312.604 204.888 312.604 205.257C312.604 205.627 312.949 205.926 313.374 205.926Z" fill="white"/>
<path d="M313.224 202.758C313.649 202.758 313.993 202.459 313.993 202.089C313.993 201.72 313.649 201.42 313.224 201.42C312.799 201.42 312.455 201.72 312.455 202.089C312.455 202.459 312.799 202.758 313.224 202.758Z" fill="white"/>
<path d="M266.495 56.3531L270.725 66.7197L281.875 61.0348C281.875 61.0348 276.108 55.0155 276.492 51.6714L266.495 56.3531Z" fill="#FFB8B8"/>
<path d="M267.841 57.8579C273.787 57.8579 278.607 53.6658 278.607 48.4945C278.607 43.3232 273.787 39.1311 267.841 39.1311C261.895 39.1311 257.075 43.3232 257.075 48.4945C257.075 53.6658 261.895 57.8579 267.841 57.8579Z" fill="#FFB8B8"/>
<path d="M283.413 59.697L281.158 60.2454C281.158 60.2454 276.492 60.0314 274.185 63.0411C271.878 66.0508 270.171 65.3635 270.171 65.3635L260.727 77.755C260.727 77.755 257.651 82.7712 258.805 88.4561C259.958 94.141 263.803 102.167 263.803 102.167C263.803 102.167 288.412 104.173 289.181 103.17C289.95 102.167 289.181 95.4786 289.181 95.4786L292.257 65.7164C292.257 65.7164 288.796 60.7003 286.874 60.7003C285.633 60.6639 284.431 60.3154 283.413 59.697Z" fill="#2C3590"/>
<path d="M291.103 101.164C291.103 101.164 284.567 100.829 281.875 101.498C279.184 102.167 263.034 101.498 263.034 101.498L258.42 126.579L243.424 197.473L259.574 202.824L278.799 163.029L281.106 168.714L310.329 196.47L325.709 190.451L300.332 153.666L292.257 127.916C292.257 127.916 297.256 113.202 290.334 104.173L291.103 101.164Z" fill="#2F2E41"/>
<path opacity="0.2" d="M264.935 127.471L264.209 127.692L278.436 163.139L279.162 162.919L264.935 127.471Z" fill="black"/>
<path d="M287.788 33.7152C287.175 31.6079 285.128 30.2406 283.215 30.6612C283.193 30.6659 283.173 30.6737 283.152 30.6789C283.368 30.5741 283.599 30.4943 283.839 30.4413C285.752 30.0206 287.8 31.388 288.412 33.4953C289.018 35.5787 287.993 37.6026 286.121 38.0548C287.588 37.3478 288.322 35.5539 287.788 33.7152Z" fill="#2F2E41"/>
<path d="M287.337 36.9945C289.267 35.6136 289.815 33.4198 288.562 32.0946C288.547 32.0796 288.531 32.0672 288.516 32.0525C288.717 32.178 288.899 32.3257 289.057 32.4919C290.31 33.8171 289.762 36.0109 287.832 37.3918C285.923 38.757 283.381 38.8143 282.113 37.5348C283.474 38.3867 285.652 38.1994 287.337 36.9945Z" fill="#2F2E41"/>
<path d="M288.46 37.6441C289.51 36.1908 288.644 34.0757 286.528 32.9199C284.411 31.764 281.845 32.0052 280.796 33.4585C279.746 34.9117 280.612 37.0268 282.728 38.1827C284.845 39.3385 287.411 39.0974 288.46 37.6441Z" fill="#2F2E41"/>
<path d="M280.91 36.563C281.923 36.5632 282.915 36.8166 283.768 37.293C284.517 37.6955 285.142 38.2516 285.586 38.9125C284.573 38.9124 283.581 38.659 282.728 38.1825C281.979 37.78 281.355 37.2239 280.91 36.563Z" fill="#2C3590"/>
<path d="M266.304 35.118C264.671 35.118 264.157 36.3787 264.468 37.701C266.241 45.1044 265.543 52.7941 262.458 59.8642H272.336L274.185 56.0578L274.902 59.8642H287.835V56.0253C292.188 40.4756 282.957 32.8871 266.304 35.118Z" fill="#2F2E41"/>
<path d="M264.684 35.4526H263.692C262.722 35.4526 261.761 35.6188 260.865 35.9416C259.969 36.2644 259.155 36.7376 258.469 37.3341C257.783 37.9306 257.239 38.6387 256.868 39.4181C256.496 40.1975 256.305 41.0328 256.305 41.8764V44.1472L262.75 43.4637L263.227 41.8064L263.675 43.3656L272.07 42.4752V41.8764C272.07 41.0328 271.879 40.1975 271.508 39.4181C271.137 38.6387 270.593 37.9306 269.907 37.3341C269.221 36.7376 268.407 36.2644 267.511 35.9416C266.615 35.6188 265.654 35.4526 264.684 35.4526Z" fill="#2F2E41"/>
<path opacity="0.2" d="M280.959 76.8467L277.115 101.593L273.081 101.776L280.959 76.8467Z" fill="black"/>
<path d="M276.984 106.641L269.344 126.574C269.344 126.574 253.428 142.077 262.341 142.077C271.254 142.077 275.71 128.235 275.71 128.235L286.533 108.302L276.984 106.641Z" fill="#FFB8B8"/>
<path d="M284.942 61.5151C284.942 61.5151 290.12 59.5657 293.264 64.4736C296.408 69.3816 295.128 88.0922 294.491 90.8607C293.855 93.6291 289.398 110.793 289.398 110.793L274.119 108.025C274.119 108.025 272.846 100.273 276.665 100.827L284.942 61.5151Z" fill="#2C3590"/>
<path d="M389.662 223.145H0V224H389.662V223.145Z" fill="#3F3D56"/>
</g>
<defs>
<clipPath id="clip0">
<rect width="391" height="224" fill="white"/>
</clipPath>
</defs>
</svg>
