<svg width="316" height="207" viewBox="0 0 316 207" fill="none" xmlns="http://www.w3.org/2000/svg">
<path d="M294.459 202.223C294.051 203.547 293.544 204.82 292.943 206.023C292.776 206.355 292.601 206.683 292.415 207H276.929C276.821 206.897 276.716 206.79 276.607 206.687C276.063 206.634 275.522 206.565 274.994 206.492C275.048 206.433 275.107 206.375 275.161 206.316C274.881 206.346 274.601 206.375 274.321 206.389C274.543 206.424 274.768 206.458 274.994 206.492C274.827 206.663 274.656 206.834 274.481 207H273.804L274.259 206.389C273.898 206.404 273.54 206.414 273.179 206.404L274.31 206.023L275.53 205.613C275.577 205.662 275.627 205.71 275.674 205.759C277.757 203.459 279.451 200.656 280.654 197.516C281.858 194.377 282.547 190.965 282.681 187.484C282.814 184.004 282.389 180.525 281.431 177.254C280.473 173.984 279.002 170.989 277.104 168.448C280.159 171.023 282.774 174.337 284.8 178.195C286.825 182.053 288.219 186.379 288.901 190.921C289.252 193.141 289.304 195.419 289.057 197.661C289.193 197.471 289.328 197.28 289.461 197.085C291.429 194.088 292.848 190.583 293.617 186.818C294.386 183.054 294.485 179.123 293.907 175.306C295.415 179.522 296.24 184.073 296.335 188.695C296.429 193.316 295.792 197.914 294.459 202.223Z" fill="#E6E6E6"/>
<path d="M217.213 38.8622C223.241 38.8622 228.128 32.7213 228.128 25.1461C228.128 17.5709 223.241 11.4301 217.213 11.4301C211.185 11.4301 206.298 17.5709 206.298 25.1461C206.298 32.7213 211.185 38.8622 217.213 38.8622Z" fill="#2F2E41"/>
<path d="M252.608 201.283L247.843 201.282L245.576 178.185L252.609 178.186L252.608 201.283Z" fill="#FFB8B8"/>
<path d="M244.439 199.571H253.629V206.843H238.653C238.653 205.888 238.803 204.942 239.093 204.06C239.384 203.178 239.81 202.376 240.348 201.701C240.885 201.026 241.523 200.49 242.225 200.125C242.927 199.759 243.679 199.571 244.439 199.571Z" fill="#2F2E41"/>
<path d="M203.999 200.499L199.398 198.94L201.993 175.897L208.784 178.198L203.999 200.499Z" fill="#FFB8B8"/>
<path d="M196.466 196.175L205.339 199.181L203.833 206.201L189.373 201.302C189.772 199.44 190.744 197.854 192.074 196.892C193.405 195.931 194.984 195.672 196.466 196.175Z" fill="#2F2E41"/>
<path d="M213.029 94.4121L198.839 195.454L206.116 197.282L229.037 125.959L246.137 196.825L254.869 195.454C254.869 195.454 250.867 93.9549 238.133 85.2681L213.029 94.4121Z" fill="#2F2E41"/>
<path d="M190.526 130.558C191.037 130.238 191.487 129.781 191.843 129.219C192.198 128.657 192.452 128.004 192.585 127.306C192.718 126.608 192.728 125.881 192.614 125.178C192.5 124.474 192.264 123.811 191.923 123.234L199.749 108.814L192.532 108.673L186.207 122.388C185.474 123.171 184.995 124.265 184.861 125.462C184.727 126.659 184.947 127.877 185.479 128.884C186.011 129.891 186.819 130.617 187.749 130.926C188.679 131.234 189.667 131.103 190.526 130.558Z" fill="#FFB8B8"/>
<path d="M242.19 112.727C242.701 112.407 243.151 111.95 243.507 111.388C243.862 110.826 244.116 110.173 244.249 109.475C244.382 108.777 244.392 108.05 244.278 107.347C244.163 106.643 243.928 105.98 243.587 105.403L251.413 90.9832L244.196 90.8424L237.871 104.558C237.138 105.341 236.659 106.434 236.525 107.631C236.391 108.828 236.611 110.046 237.143 111.053C237.675 112.06 238.483 112.786 239.413 113.095C240.343 113.403 241.331 113.273 242.19 112.727V112.727Z" fill="#FFB8B8"/>
<path d="M217.491 41.5777C222.763 41.5777 227.037 36.2067 227.037 29.5813C227.037 22.9558 222.763 17.5848 217.491 17.5848C212.218 17.5848 207.944 22.9558 207.944 29.5813C207.944 36.2067 212.218 41.5777 217.491 41.5777Z" fill="#FFB8B8"/>
<path d="M238.133 48.2347C237.769 46.4059 231.584 46.8631 231.584 46.8631C231.584 46.8631 224.619 44.851 224.685 45.1026C218.816 44.5349 211.657 47.3038 210.614 47.7237C208.481 48.4633 204.405 50.7258 201.465 52.3898C201.056 52.6215 200.736 53.0468 200.576 53.5732C200.415 54.0997 200.426 54.6846 200.606 55.201L209.572 80.9246L210.846 97.6125L240.316 86.1825C233.039 82.5248 238.497 50.0635 238.133 48.2347Z" fill="#2C3590"/>
<path d="M235.586 48.6919L238.005 47.9285L251.231 80.696L251.959 99.4416L243.591 91.212V83.8967L234.859 69.7233L235.586 48.6919Z" fill="#2C3590"/>
<path d="M203.751 51.2065L200.95 52.7707C200.805 52.8522 200.677 52.9775 200.579 53.1355C200.48 53.2936 200.415 53.4796 200.387 53.6771L194.837 93.4977L189.38 113.615L196.656 118.187L205.024 93.0405L207.935 74.7524L203.751 51.2065Z" fill="#2C3590"/>
<path d="M207.479 23.9261C209.417 23.1266 211.461 24.38 213.354 25.3341C215.219 26.2744 217.212 26.9521 219.219 26.8039C221.225 26.6558 223.254 25.591 224.467 23.5772C225.68 21.5633 225.894 18.5452 224.693 16.5198C223.902 15.1864 222.641 14.4257 221.378 13.9303C218.68 12.8719 215.659 12.8353 213.094 14.3285C210.529 15.8218 208.518 18.9763 208.306 22.5189" fill="#2F2E41"/>
<path d="M216.922 14.3704C216.271 8.83349 218.685 3.08467 221.979 1.02241C225.273 -1.03986 229.138 0.176687 232.105 3.24766C235.073 6.31864 237.236 11.0378 238.846 16.0543C240.456 21.0708 241.571 26.4439 242.883 31.6757C244.048 36.3222 245.416 40.9715 247.628 44.5252C249.841 48.0789 253.059 50.3914 256.143 49.415C253.609 53.695 248.949 52.9539 246.058 49.293C243.167 45.6321 241.664 39.9101 240.481 34.3403C239.298 28.7705 238.269 22.9426 235.98 18.327C231.908 10.1157 223.919 7.64881 218.213 12.8412" fill="#2F2E41"/>
<path d="M316 206.023H0V207H316V206.023Z" fill="#3F3D56"/>
<path d="M165.789 112.297H27.8749C26.7706 112.295 25.7119 111.743 24.931 110.762C24.1501 109.781 23.7109 108.45 23.7097 107.062V65.771C23.7109 64.3833 24.1501 63.0528 24.931 62.0716C25.7119 61.0903 26.7706 60.5384 27.8749 60.5369H165.789C166.894 60.5384 167.952 61.0903 168.733 62.0716C169.514 63.0528 169.953 64.3833 169.954 65.771V107.062C169.953 108.45 169.514 109.781 168.733 110.762C167.952 111.743 166.894 112.295 165.789 112.297ZM27.8749 61.7C27.016 61.7013 26.1926 62.1306 25.5853 62.8938C24.978 63.657 24.6364 64.6917 24.6353 65.771V107.062C24.6364 108.142 24.978 109.176 25.5853 109.94C26.1926 110.703 27.016 111.132 27.8749 111.133H165.789C166.648 111.132 167.471 110.703 168.079 109.94C168.686 109.176 169.028 108.142 169.029 107.062V65.771C169.028 64.6917 168.686 63.657 168.079 62.8938C167.471 62.1306 166.648 61.7013 165.789 61.7H27.8749Z" fill="#3F3D56"/>
<path d="M159.079 103.573H34.5855C34.5246 103.573 34.4643 103.558 34.408 103.529C34.3517 103.5 34.3005 103.457 34.2574 103.403C34.2143 103.349 34.1801 103.285 34.1567 103.214C34.1334 103.144 34.1214 103.068 34.1214 102.991C34.1214 102.915 34.1334 102.839 34.1567 102.769C34.1801 102.698 34.2143 102.634 34.2574 102.58C34.3005 102.526 34.3517 102.483 34.408 102.454C34.4643 102.425 34.5246 102.41 34.5855 102.41H159.079C159.139 102.41 159.2 102.425 159.256 102.454C159.312 102.483 159.364 102.526 159.407 102.58C159.45 102.634 159.484 102.698 159.507 102.769C159.531 102.839 159.543 102.915 159.543 102.991C159.543 103.068 159.531 103.144 159.507 103.214C159.484 103.285 159.45 103.349 159.407 103.403C159.364 103.457 159.312 103.5 159.256 103.529C159.2 103.558 159.139 103.573 159.079 103.573Z" fill="#E6E6E6"/>
<path d="M47.7753 84.3812H37.5937C37.4712 84.3817 37.3538 84.4432 37.2673 84.5522C37.1808 84.6612 37.1323 84.8089 37.1323 84.9628C37.1323 85.1168 37.1808 85.2644 37.2673 85.3734C37.3538 85.4825 37.4712 85.5439 37.5937 85.5444H42.2217V95.8281C42.2136 96.5734 42.4319 97.2946 42.8322 97.8447C43.2325 98.3948 43.7847 98.7324 44.3762 98.7887C44.4051 98.7904 44.4349 98.791 44.4652 98.791C44.829 98.7825 45.1857 98.6627 45.5044 98.4421C45.8231 98.2214 46.0942 97.9064 46.2943 97.5245C46.3677 97.4011 46.3991 97.2462 46.3817 97.0937C46.3643 96.9412 46.2994 96.8036 46.2013 96.7112C46.1032 96.6188 45.9799 96.5791 45.8586 96.6008C45.7372 96.6226 45.6277 96.7039 45.554 96.8271C45.436 97.0735 45.2689 97.2769 45.0691 97.4172C44.8694 97.5574 44.6439 97.6297 44.4151 97.6267C44.0614 97.5855 43.7336 97.3766 43.4981 97.0425C43.2626 96.7084 43.1372 96.2742 43.1473 95.828V85.5444H47.7753C47.8362 85.5446 47.8965 85.5297 47.9528 85.5006C48.0092 85.4715 48.0603 85.4287 48.1034 85.3746C48.1466 85.3206 48.1808 85.2564 48.2041 85.1857C48.2275 85.1151 48.2395 85.0393 48.2395 84.9628C48.2395 84.8863 48.2275 84.8105 48.2041 84.7398C48.1808 84.6692 48.1466 84.605 48.1034 84.551C48.0603 84.4969 48.0092 84.4541 47.9528 84.425C47.8965 84.3959 47.8362 84.381 47.7753 84.3812L47.7753 84.3812Z" fill="#2C3590"/>
<path d="M82.4853 134.978C84.5301 134.978 86.1877 132.895 86.1877 130.325C86.1877 127.756 84.5301 125.673 82.4853 125.673C80.4405 125.673 78.7829 127.756 78.7829 130.325C78.7829 132.895 80.4405 134.978 82.4853 134.978Z" fill="#E6E6E6"/>
<path d="M96.8321 134.978C98.8769 134.978 100.535 132.895 100.535 130.325C100.535 127.756 98.8769 125.673 96.8321 125.673C94.7873 125.673 93.1297 127.756 93.1297 130.325C93.1297 132.895 94.7873 134.978 96.8321 134.978Z" fill="#2C3590"/>
<path d="M111.179 134.978C113.224 134.978 114.881 132.895 114.881 130.325C114.881 127.756 113.224 125.673 111.179 125.673C109.134 125.673 107.476 127.756 107.476 130.325C107.476 132.895 109.134 134.978 111.179 134.978Z" fill="#E6E6E6"/>
<path d="M49.9363 98.3571C50.0874 98.3506 50.2306 98.2705 50.3356 98.1338C50.4407 97.9971 50.4994 97.8145 50.4994 97.6245C50.4994 97.4345 50.4407 97.2519 50.3356 97.1152C50.2306 96.9785 50.0874 96.8984 49.9363 96.8918C49.7851 96.8984 49.6419 96.9785 49.5369 97.1152C49.4318 97.2519 49.3731 97.4345 49.3731 97.6245C49.3731 97.8145 49.4318 97.9971 49.5369 98.1338C49.6419 98.2705 49.7851 98.3506 49.9363 98.3571Z" fill="#3F3D56"/>
<path d="M53.6387 98.3571C53.7898 98.3506 53.933 98.2705 54.0381 98.1338C54.1431 97.9971 54.2018 97.8145 54.2018 97.6245C54.2018 97.4345 54.1431 97.2519 54.0381 97.1152C53.933 96.9785 53.7898 96.8984 53.6387 96.8918C53.4875 96.8984 53.3443 96.9785 53.2393 97.1152C53.1342 97.2519 53.0755 97.4345 53.0755 97.6245C53.0755 97.8145 53.1342 97.9971 53.2393 98.1338C53.3443 98.2705 53.4875 98.3506 53.6387 98.3571Z" fill="#3F3D56"/>
<path d="M57.341 98.3571C57.4922 98.3506 57.6354 98.2705 57.7404 98.1338C57.8455 97.9971 57.9042 97.8145 57.9042 97.6245C57.9042 97.4345 57.8455 97.2519 57.7404 97.1152C57.6354 96.9785 57.4922 96.8984 57.341 96.8918C57.1899 96.8984 57.0467 96.9785 56.9416 97.1152C56.8366 97.2519 56.7779 97.4345 56.7779 97.6245C56.7779 97.8145 56.8366 97.9971 56.9416 98.1338C57.0467 98.2705 57.1899 98.3506 57.341 98.3571Z" fill="#3F3D56"/>
</svg>
