<svg width="357" height="238" viewBox="0 0 357 238" fill="none" xmlns="http://www.w3.org/2000/svg">
<g clip-path="url(#clip0)">
<path d="M207.147 232.72C204.495 234.527 201.619 236.018 198.585 237.161C197.79 237.463 196.991 237.744 196.178 238H154.701C154.534 237.723 154.37 237.442 154.202 237.161C150.838 231.435 147.786 225.487 146.921 219.019C145.883 211.253 148.793 202.46 155.986 198.644C156.929 198.145 157.927 197.748 158.962 197.46C159.391 197.334 159.828 197.234 160.27 197.145C162.966 196.577 165.773 196.701 168.402 197.505C171.031 198.309 173.388 199.764 175.229 201.721C177.071 203.678 178.33 206.066 178.879 208.639C179.428 211.212 179.246 213.878 178.352 216.362C184.45 210.418 183.311 200.781 181.209 192.725C179.103 184.67 176.55 175.704 180.838 168.468C183.218 164.442 187.409 161.945 192.107 160.938C192.253 160.908 192.399 160.879 192.54 160.854C198.142 159.775 203.965 160.745 208.847 163.569C217.838 168.951 222.452 179.163 223.949 189.162C226.365 205.255 221.021 223.212 207.147 232.72Z" fill="#F2F2F2"/>
<path d="M163.524 202.275C166.845 208.683 167.904 215.939 166.544 222.965C165.519 228.116 163.258 232.974 159.938 237.161C159.713 237.446 159.484 237.727 159.249 238H157.611C157.863 237.727 158.11 237.446 158.344 237.161C161.36 233.59 163.546 229.453 164.759 225.022C165.972 220.591 166.185 215.966 165.383 211.451C164.432 206.372 162.232 201.578 158.962 197.46C159.391 197.334 159.828 197.234 160.27 197.146C161.513 198.76 162.602 200.476 163.524 202.275Z" fill="white"/>
<path d="M203.204 206.921C202.849 210.471 201.952 213.952 200.541 217.256C199.24 220.179 197.487 222.901 195.339 225.332C190.955 230.348 185.152 234.121 178.851 236.632C178.392 236.816 177.928 236.993 177.46 237.16C176.647 237.463 175.826 237.74 175 238H170.527C171.583 237.748 172.634 237.467 173.671 237.16C176.139 236.431 178.546 235.528 180.873 234.461C186.79 231.796 191.927 227.79 195.834 222.796C200.024 217.298 201.875 210.687 202.193 203.966C202.528 196.776 201.544 189.455 199.817 182.458C198.055 175.286 195.375 168.346 191.838 161.794C191.759 161.645 191.742 161.474 191.793 161.314C191.843 161.155 191.955 161.02 192.107 160.937C192.234 160.857 192.39 160.827 192.54 160.854C192.613 160.871 192.682 160.905 192.74 160.951C192.798 160.998 192.844 161.056 192.875 161.122C193.313 161.932 193.741 162.742 194.152 163.561C197.581 170.385 200.107 177.587 201.672 185.002C203.186 192.154 203.999 199.639 203.204 206.921Z" fill="white"/>
<path d="M18.7536 118.79C15.0855 118.79 11.4998 117.756 8.44986 115.819C5.39997 113.882 3.02286 111.128 1.61914 107.907C0.215429 104.686 -0.151841 101.141 0.563766 97.7212C1.27937 94.3013 3.04572 91.16 5.63945 88.6945C8.23317 86.2289 11.5378 84.5499 15.1354 83.8696C18.733 83.1894 22.462 83.5385 25.8509 84.8729C29.2397 86.2072 32.1362 88.4668 34.1741 91.366C36.212 94.2652 37.2997 97.6737 37.2997 101.161C37.2941 105.835 35.3384 110.316 31.8615 113.621C28.3846 116.926 23.6706 118.785 18.7536 118.79ZM18.7536 84.3704C15.2601 84.3704 11.8452 85.3551 8.94052 87.2C6.03585 89.045 3.77194 91.6672 2.43507 94.7352C1.0982 97.8032 0.748413 101.179 1.42994 104.436C2.11147 107.693 3.79371 110.685 6.26393 113.033C8.73414 115.381 11.8814 116.98 15.3077 117.628C18.734 118.276 22.2854 117.943 25.5129 116.673C28.7404 115.402 31.499 113.25 33.4398 110.489C35.3806 107.727 36.4165 104.481 36.4165 101.161C36.4113 96.709 34.5486 92.4413 31.2373 89.2937C27.926 86.146 23.4364 84.3754 18.7536 84.3704Z" fill="#3F3D56"/>
<path d="M93.8213 62.1234C90.1532 62.1234 86.5675 61.0894 83.5176 59.1523C80.4677 57.2151 78.0906 54.4617 76.6869 51.2403C75.2832 48.0189 74.9159 44.4742 75.6315 41.0544C76.3471 37.6346 78.1135 34.4933 80.7072 32.0277C83.3009 29.5622 86.6055 27.8831 90.2031 27.2029C93.8007 26.5226 97.5297 26.8718 100.919 28.2061C104.307 29.5405 107.204 31.8001 109.242 34.6993C111.28 37.5984 112.367 41.007 112.367 44.4938C112.362 49.1678 110.406 53.6489 106.929 56.9539C103.452 60.259 98.7383 62.1181 93.8213 62.1234ZM93.8213 27.7036C90.3279 27.7036 86.9129 28.6884 84.0083 30.5333C81.1036 32.3782 78.8397 35.0005 77.5028 38.0685C76.166 41.1365 75.8162 44.5124 76.4977 47.7694C77.1792 51.0263 78.8615 54.018 81.3317 56.3662C83.8019 58.7143 86.9491 60.3134 90.3754 60.9613C93.8017 61.6091 97.3532 61.2766 100.581 60.0058C103.808 58.735 106.567 56.583 108.508 53.8219C110.448 51.0607 111.484 47.8145 111.484 44.4938C111.479 40.0423 109.616 35.7746 106.305 32.6269C102.994 29.4792 98.5042 27.7087 93.8213 27.7036Z" fill="#3F3D56"/>
<path d="M174.188 35.2593C170.52 35.2593 166.934 34.2253 163.884 32.2881C160.834 30.351 158.457 27.5976 157.054 24.3762C155.65 21.1548 155.283 17.6101 155.998 14.1903C156.714 10.7705 158.48 7.62915 161.074 5.1636C163.668 2.69806 166.972 1.019 170.57 0.338756C174.167 -0.341487 177.896 0.00763977 181.285 1.34198C184.674 2.67633 187.571 4.93596 189.609 7.83514C191.646 10.7343 192.734 14.1428 192.734 17.6296C192.729 22.3037 190.773 26.7848 187.296 30.0898C183.819 33.3949 179.105 35.254 174.188 35.2593ZM174.188 0.839512C170.695 0.839512 167.28 1.82423 164.375 3.66916C161.47 5.51408 159.206 8.13634 157.87 11.2043C156.533 14.2723 156.183 17.6483 156.864 20.9052C157.546 24.1622 159.228 27.1539 161.698 29.502C164.169 31.8502 167.316 33.4493 170.742 34.0971C174.168 34.745 177.72 34.4125 180.947 33.1417C184.175 31.8709 186.933 29.7188 188.874 26.9577C190.815 24.1966 191.851 20.9504 191.851 17.6296C191.846 13.1782 189.983 8.91044 186.672 5.76277C183.36 2.6151 178.871 0.844535 174.188 0.839512Z" fill="#3F3D56"/>
<path d="M259.854 62.963C256.185 62.963 252.6 61.929 249.55 59.9919C246.5 58.0547 244.123 55.3013 242.719 52.0799C241.315 48.8585 240.948 45.3138 241.664 41.894C242.379 38.4742 244.146 35.3329 246.739 32.8673C249.333 30.4018 252.638 28.7227 256.235 28.0425C259.833 27.3622 263.562 27.7114 266.951 29.0457C270.34 30.3801 273.236 32.6397 275.274 35.5389C277.312 38.438 278.4 41.8466 278.4 45.3334C278.394 50.0074 276.438 54.4885 272.962 57.7935C269.485 61.0986 264.771 62.9577 259.854 62.963ZM259.854 28.5432C256.36 28.5432 252.945 29.528 250.04 31.3729C247.136 33.2178 244.872 35.8401 243.535 38.9081C242.198 41.9761 241.848 45.352 242.53 48.609C243.211 51.8659 244.894 54.8576 247.364 57.2058C249.834 59.5539 252.981 61.153 256.408 61.8009C259.834 62.4487 263.385 62.1162 266.613 60.8454C269.84 59.5746 272.599 57.4226 274.54 54.6615C276.481 51.9003 277.517 48.6541 277.517 45.3334C277.511 40.8819 275.649 36.6142 272.337 33.4665C269.026 30.3188 264.536 28.5483 259.854 28.5432Z" fill="#3F3D56"/>
<path d="M338.454 105.358C334.786 105.358 331.2 104.324 328.15 102.387C325.1 100.45 322.723 97.6964 321.319 94.475C319.916 91.2536 319.548 87.7088 320.264 84.289C320.98 80.8692 322.746 77.7279 325.34 75.2624C327.933 72.7968 331.238 71.1178 334.836 70.4375C338.433 69.7573 342.162 70.1064 345.551 71.4407C348.94 72.7751 351.837 75.0347 353.874 77.9339C355.912 80.8331 357 84.2416 357 87.7284C356.994 92.4024 355.039 96.8835 351.562 100.189C348.085 103.494 343.371 105.353 338.454 105.358ZM338.454 70.9383C334.96 70.9383 331.546 71.923 328.641 73.7679C325.736 75.6128 323.472 78.2351 322.135 81.3031C320.799 84.3711 320.449 87.747 321.13 91.004C321.812 94.261 323.494 97.2527 325.964 99.6008C328.434 101.949 331.582 103.548 335.008 104.196C338.434 104.844 341.986 104.511 345.213 103.24C348.441 101.97 351.199 99.8176 353.14 97.0565C355.081 94.2954 356.117 91.0492 356.117 87.7284C356.112 83.2769 354.249 79.0092 350.938 75.8615C347.626 72.7139 343.137 70.9433 338.454 70.9383Z" fill="#3F3D56"/>
<path d="M104.419 39.6657L106.627 39.2459C106.627 39.2459 104.772 41.2188 104.419 41.3447C104.386 41.7639 104.386 42.1848 104.419 42.604C100.18 59.8978 84.5482 52.2583 84.5482 52.2583C90.2446 52.3842 90.7303 50.1595 90.7303 50.1595C87.4185 49.6978 86.7561 47.641 86.7561 47.641C87.0533 47.79 87.3978 47.8296 87.7237 47.7521C88.0496 47.6747 88.334 47.4856 88.5224 47.2212C84.9457 46.3398 85.4314 43.0237 85.4314 43.0237C86.0689 43.4613 86.8139 43.7359 87.5951 43.8212C87.1977 43.3595 83.8417 39.5398 85.873 37.5669C85.873 37.5669 88.3458 41.7644 94.8369 42.1422L95.2785 42.0583C95.2034 41.756 95.1737 41.4451 95.1902 41.1348C95.1902 39.9659 95.6787 38.8449 96.5482 38.0183C97.4177 37.1918 98.5971 36.7274 99.8267 36.7274C102.918 36.7274 103.58 38.4064 103.58 38.4064L105.788 37.1472C105.744 37.1472 105.523 39.2459 104.419 39.6657Z" fill="#3F3D56"/>
<path d="M245.427 226.513L250.288 228.778L261.792 212.032L254.618 208.689L245.427 226.513Z" fill="#FFB8B8"/>
<path d="M244.965 224.426L254.538 228.887L254.539 228.887C255.34 229.26 256.056 229.78 256.646 230.416C257.235 231.053 257.688 231.793 257.976 232.596C258.265 233.398 258.385 234.247 258.329 235.094C258.272 235.94 258.041 236.768 257.648 237.529L257.551 237.718L241.877 230.414L244.965 224.426Z" fill="#2F2E41"/>
<path d="M293.6 234.408L299.014 234.408L301.589 214.559H293.599L293.6 234.408Z" fill="#FFB8B8"/>
<path d="M292.219 231.049L302.88 231.049H302.881C303.773 231.049 304.657 231.216 305.481 231.54C306.305 231.865 307.054 232.341 307.685 232.94C308.316 233.54 308.817 234.252 309.158 235.036C309.499 235.819 309.675 236.659 309.675 237.507V237.717L292.219 237.718L292.219 231.049Z" fill="#2F2E41"/>
<path d="M281.972 97.4202C287.961 97.4202 292.817 92.8044 292.817 87.1106C292.817 81.4168 287.961 76.801 281.972 76.801C275.982 76.801 271.126 81.4168 271.126 87.1106C271.126 92.8044 275.982 97.4202 281.972 97.4202Z" fill="#FFB8B8"/>
<path d="M292.772 227.861C292.26 227.861 291.768 227.672 291.399 227.336C291.03 226.999 290.811 226.541 290.789 226.055L286.596 173.014C286.592 172.875 286.539 172.742 286.446 172.634C286.352 172.527 286.225 172.452 286.082 172.421C285.939 172.39 285.79 172.405 285.657 172.463C285.524 172.521 285.415 172.619 285.348 172.743L258.53 221.41C258.287 221.846 257.874 222.175 257.379 222.327C256.885 222.479 256.347 222.442 255.881 222.223L248.405 218.669C247.936 218.445 247.579 218.054 247.412 217.581C247.245 217.109 247.281 216.592 247.512 216.144L263.514 185.321L274.113 162.232C278.204 154.572 282.549 150.625 287.394 150.164C292.366 149.692 297.674 152.942 303.627 160.099L303.676 160.157L303.675 160.231L302.792 225.023C302.793 225.494 302.609 225.948 302.275 226.296C301.942 226.643 301.483 226.859 300.99 226.901L292.966 227.852C292.901 227.858 292.836 227.861 292.772 227.861Z" fill="#2F2E41"/>
<path d="M270.525 165.961C271.115 165.615 271.618 165.15 271.999 164.599C272.38 164.048 272.629 163.424 272.728 162.772C272.828 162.12 272.776 161.454 272.576 160.823C272.376 160.192 272.033 159.61 271.571 159.119L273.206 118.043L265.258 118.985L264.588 158.945C263.77 159.738 263.288 160.788 263.23 161.897C263.173 163.005 263.546 164.095 264.278 164.96C265.01 165.825 266.05 166.404 267.201 166.589C268.353 166.773 269.535 166.55 270.525 165.961Z" fill="#FFB8B8"/>
<path d="M275.553 125.306L264.879 124.153C264.575 124.12 264.283 124.025 264.021 123.875C263.759 123.725 263.534 123.523 263.362 123.283C263.19 123.043 263.074 122.771 263.023 122.484C262.971 122.198 262.985 121.904 263.064 121.623L265.819 111.785C266.005 110.309 266.799 108.964 268.026 108.043C269.254 107.122 270.816 106.702 272.369 106.874C273.922 107.046 275.34 107.797 276.312 108.961C277.284 110.126 277.731 111.609 277.554 113.086L277.919 123.228C277.929 123.518 277.873 123.808 277.756 124.076C277.638 124.344 277.461 124.585 277.236 124.782C277.012 124.979 276.745 125.128 276.455 125.218C276.164 125.308 275.856 125.338 275.553 125.305V125.306Z" fill="#2C3590"/>
<path d="M321.532 99.4487C321.478 99.6752 321.443 99.9054 321.427 100.137L302.458 110.54L297.847 108.016L292.932 114.133L300.638 119.354C301.26 119.776 302.01 119.994 302.774 119.976C303.538 119.959 304.276 119.706 304.876 119.256L324.436 104.587C325.319 104.898 326.28 104.945 327.192 104.724C328.104 104.503 328.924 104.023 329.542 103.348C330.16 102.673 330.547 101.835 330.652 100.946C330.756 100.057 330.574 99.158 330.129 98.3698C329.683 97.5816 328.996 96.9409 328.158 96.5331C327.32 96.1252 326.372 95.9695 325.438 96.0866C324.505 96.2038 323.632 96.5882 322.934 97.1887C322.236 97.7893 321.747 98.5776 321.532 99.4487Z" fill="#FFB8B8"/>
<path d="M301.824 111.032L295.693 118.585C295.519 118.8 295.297 118.977 295.045 119.103C294.792 119.229 294.514 119.303 294.228 119.317C293.943 119.332 293.658 119.288 293.392 119.189C293.127 119.09 292.887 118.937 292.688 118.742L285.748 111.891C284.596 111.036 283.847 109.782 283.666 108.404C283.484 107.025 283.886 105.635 284.782 104.537C285.678 103.44 286.996 102.725 288.446 102.55C289.896 102.375 291.36 102.754 292.516 103.603L301.221 108.23C301.47 108.362 301.686 108.545 301.855 108.764C302.023 108.983 302.14 109.234 302.197 109.5C302.254 109.766 302.251 110.04 302.186 110.305C302.122 110.569 301.998 110.817 301.824 111.032H301.824Z" fill="#2C3590"/>
<path d="M306.825 163.311L295.055 108.814C294.496 106.224 292.902 103.941 290.609 102.445C288.315 100.948 285.501 100.355 282.757 100.79L278.832 101.411C277.468 101.627 276.163 102.097 274.99 102.792C273.817 103.488 272.8 104.396 271.997 105.466C270.72 107.165 269.86 109.114 269.48 111.17C269.1 113.227 269.209 115.338 269.801 117.349L276.297 139.451L271.476 163.13C271.422 163.393 271.435 163.664 271.514 163.921C271.593 164.177 271.735 164.413 271.929 164.607C272.123 164.8 272.363 164.948 272.629 165.035C272.894 165.123 273.178 165.149 273.457 165.111C275.871 164.783 279.85 164.315 284.419 164.059L286.895 154.982L287.902 163.915C293.515 163.766 299.609 164.027 304.636 165.269C304.927 165.343 305.233 165.345 305.525 165.275C305.816 165.205 306.085 165.065 306.304 164.869C306.523 164.673 306.686 164.427 306.777 164.154C306.868 163.881 306.885 163.591 306.825 163.311Z" fill="#2C3590"/>
<path d="M286.145 84.8169C288.932 86.6304 292.592 88.4947 295.44 86.5634C297.309 85.2953 297.898 82.947 297.14 80.8863C295.777 77.1804 292.031 75.549 288.449 74.2984C283.793 72.6727 278.723 71.3794 273.917 72.5436C269.11 73.7079 264.862 78.1318 265.73 82.7742C266.427 86.5076 270.132 89.6141 269.606 93.3728C269.077 97.1557 264.602 99.1469 260.65 99.823C256.699 100.499 252.278 100.716 249.439 103.414C245.816 106.856 246.721 113.007 250.129 116.64C253.538 120.274 258.681 121.921 263.665 123.041C270.269 124.524 277.411 125.304 283.683 122.842C289.954 120.38 294.835 113.752 293.018 107.538C292.251 104.912 290.443 102.694 288.696 100.534C286.949 98.3744 285.179 96.1158 284.513 93.466C283.958 91.2578 284.369 88.694 285.909 87.0375C286.189 86.7476 286.366 86.3807 286.413 85.9896C286.46 85.5985 286.376 85.2032 286.172 84.8605L286.145 84.8169Z" fill="#2F2E41"/>
<path d="M179.239 8.90824C180.475 8.91175 181.658 9.37981 182.532 10.2102C183.406 11.0406 183.898 12.1659 183.902 13.3402V22.2032C183.898 23.3775 183.406 24.5028 182.532 25.3332C181.658 26.1636 180.475 26.6316 179.239 26.6352H169.915C168.68 26.6316 167.496 26.1636 166.623 25.3332C165.749 24.5028 165.257 23.3775 165.253 22.2032V13.3402C165.257 12.1659 165.749 11.0406 166.623 10.2102C167.496 9.37981 168.68 8.91175 169.915 8.90824H179.239ZM179.239 7.13574H169.915C168.186 7.14053 166.529 7.79575 165.306 8.95828C164.083 10.1208 163.394 11.6962 163.388 13.3402V22.2032C163.394 23.8472 164.083 25.4226 165.306 26.5851C166.529 27.7477 168.186 28.4029 169.915 28.4077H179.239C180.969 28.4029 182.626 27.7477 183.849 26.5851C185.072 25.4226 185.761 23.8472 185.766 22.2032V13.3402C185.761 11.6962 185.072 10.1208 183.849 8.95828C182.626 7.79575 180.969 7.14053 179.239 7.13574Z" fill="#3F3D56"/>
<path d="M180.638 13.3403C180.268 13.3395 179.914 13.1992 179.652 12.9502C179.391 12.7012 179.245 12.3638 179.245 12.0122C179.246 11.6606 179.393 11.3236 179.655 11.0751C179.916 10.8266 180.271 10.687 180.641 10.687C181.011 10.687 181.365 10.8266 181.627 11.0751C181.889 11.3236 182.036 11.6606 182.036 12.0122C182.037 12.3638 181.89 12.7012 181.629 12.9502C181.368 13.1992 181.014 13.3395 180.644 13.3403C180.642 13.3403 180.64 13.3403 180.638 13.3403Z" fill="#3F3D56"/>
<path d="M174.577 14.2262C175.315 14.2262 176.036 14.4342 176.65 14.8238C177.263 15.2133 177.741 15.7671 178.023 16.4149C178.306 17.0628 178.379 17.7756 178.235 18.4634C178.092 19.1512 177.736 19.7829 177.215 20.2787C176.693 20.7746 176.029 21.1123 175.305 21.2491C174.582 21.3859 173.832 21.3156 173.15 21.0473C172.469 20.7789 171.886 20.3245 171.476 19.7415C171.066 19.1584 170.848 18.4729 170.848 17.7717C170.848 16.8314 171.241 15.9296 171.94 15.2647C172.639 14.5998 173.588 14.2262 174.577 14.2262ZM174.577 12.4537C173.471 12.4537 172.389 12.7656 171.469 13.35C170.549 13.9343 169.832 14.7649 169.409 15.7366C168.985 16.7083 168.875 17.7776 169.09 18.8092C169.306 19.8408 169.839 20.7883 170.621 21.5321C171.404 22.2758 172.401 22.7823 173.486 22.9875C174.571 23.1927 175.696 23.0874 176.718 22.6849C177.74 22.2824 178.614 21.6008 179.229 20.7262C179.844 19.8517 180.172 18.8235 180.172 17.7717C180.172 16.3613 179.582 15.0087 178.533 14.0113C177.484 13.014 176.061 12.4537 174.577 12.4537V12.4537Z" fill="#3F3D56"/>
<path d="M72.0509 232.43L66.7816 231.25L69.0623 211.368L76.8394 213.11L72.0509 232.43Z" fill="#FFB8B8"/>
<path d="M72.1914 237.587L55.2008 233.782L55.2515 233.577C55.456 232.752 55.8296 231.973 56.351 231.284C56.8723 230.596 57.5312 230.012 58.29 229.566C59.0487 229.12 59.8925 228.82 60.7732 228.683C61.6538 228.547 62.5541 228.577 63.4225 228.772L63.4229 228.772L73.8001 231.096L72.1914 237.587Z" fill="#2F2E41"/>
<path d="M92.585 232.598H87.1713L84.5961 212.749L92.5859 212.749L92.585 232.598Z" fill="#FFB8B8"/>
<path d="M93.9655 237.587L76.5098 237.586V237.376C76.5098 236.528 76.6855 235.688 77.027 234.905C77.3684 234.121 77.8689 233.409 78.4998 232.809C79.1307 232.21 79.8797 231.734 80.704 231.409C81.5284 231.085 82.4119 230.918 83.3041 230.918H83.3045L93.9658 230.918L93.9655 237.587Z" fill="#2F2E41"/>
<path d="M121.823 154.098C122.186 153.536 122.415 152.905 122.493 152.25C122.572 151.595 122.498 150.932 122.278 150.307C122.057 149.682 121.695 149.11 121.218 148.633C120.74 148.155 120.157 147.783 119.512 147.542L103.662 109.335L94.8434 114.423L113.196 150.38C112.843 151.438 112.91 152.582 113.385 153.596C113.859 154.61 114.709 155.423 115.772 155.881C116.836 156.34 118.039 156.411 119.154 156.083C120.27 155.754 121.219 155.048 121.823 154.098Z" fill="#FFB8B8"/>
<path d="M107.03 115.653L96.9559 119.198C96.6692 119.299 96.3631 119.34 96.0583 119.318C95.7535 119.297 95.4572 119.213 95.1896 119.072C94.922 118.932 94.6894 118.738 94.5076 118.505C94.3258 118.271 94.1991 118.003 94.1361 117.719L91.9302 107.756C91.3958 106.359 91.4659 104.818 92.1252 103.47C92.7845 102.122 93.9792 101.078 95.4473 100.566C96.9154 100.054 98.5372 100.116 99.957 100.739C101.377 101.362 102.479 102.494 103.022 103.889L108.157 112.785C108.304 113.04 108.391 113.322 108.413 113.612C108.435 113.901 108.391 114.192 108.285 114.464C108.178 114.737 108.01 114.984 107.794 115.189C107.577 115.394 107.317 115.552 107.03 115.653V115.653Z" fill="#2C3590"/>
<path d="M92.2253 225.473C92.1989 225.473 92.1724 225.472 92.1458 225.471L84.4723 225.18C83.9537 225.163 83.463 224.952 83.1061 224.594C82.7492 224.236 82.5548 223.759 82.5649 223.266L83.1536 182.97C83.1561 182.808 83.0927 182.651 82.9766 182.532C82.8606 182.413 82.7008 182.342 82.5306 182.332C82.3604 182.323 82.1928 182.376 82.0628 182.481C81.9328 182.585 81.8503 182.734 81.8326 182.895L77.3811 223.236C77.3348 223.646 77.1486 224.032 76.8508 224.332C76.5531 224.633 76.16 224.833 75.7316 224.902L75.705 224.906L68.5012 224.368C68.2173 224.409 67.9273 224.391 67.6514 224.316C67.3754 224.24 67.12 224.108 66.9027 223.93C66.6853 223.751 66.5113 223.53 66.3926 223.281C66.2739 223.033 66.2133 222.763 66.215 222.49L66.6457 154.163L101.994 156.289L94.2004 223.79C94.1456 224.252 93.9141 224.679 93.5499 224.989C93.1858 225.299 92.7143 225.471 92.2253 225.473Z" fill="#2F2E41"/>
<path d="M85.7641 94.5159C91.7539 94.5159 96.6096 89.9001 96.6096 84.2063C96.6096 78.5125 91.7539 73.8967 85.7641 73.8967C79.7743 73.8967 74.9186 78.5125 74.9186 84.2063C74.9186 89.9001 79.7743 94.5159 85.7641 94.5159Z" fill="#FFB8B8"/>
<path d="M100.237 159.298C100.187 159.298 100.137 159.296 100.087 159.293L67.4172 157.021C66.9094 156.985 66.4351 156.766 66.0924 156.408C65.7496 156.05 65.5646 155.581 65.5755 155.097L66.4368 116.1C66.3791 113.707 66.8357 111.328 67.7785 109.109C68.7214 106.89 70.1307 104.877 71.9203 103.193C73.7099 101.51 75.8421 100.191 78.1863 99.3178C80.5306 98.4446 83.0377 98.0353 85.5541 98.115C88.0705 98.1947 90.5434 98.7616 92.8213 99.7812C95.0993 100.801 97.1344 102.251 98.8022 104.045C100.47 105.838 101.735 107.935 102.521 110.209C103.306 112.483 103.595 114.886 103.37 117.269C102.799 123.28 102.344 149.536 102.219 157.44C102.211 157.935 101.998 158.407 101.628 158.754C101.257 159.102 100.757 159.297 100.237 159.298Z" fill="#2C3590"/>
<path d="M42.017 95.7842C42.0712 96.0107 42.1066 96.2409 42.1227 96.4726L61.0917 106.875L65.7023 104.352L70.6176 110.469L62.9119 115.689C62.2894 116.111 61.5398 116.329 60.7756 116.312C60.0113 116.294 59.2738 116.041 58.6736 115.591L39.1134 100.923C38.2306 101.233 37.2693 101.281 36.3573 101.06C35.4453 100.838 34.6258 100.358 34.0078 99.6831C33.3898 99.0081 33.0027 98.1704 32.8978 97.2812C32.793 96.392 32.9754 95.4935 33.4208 94.7052C33.8663 93.917 34.5536 93.2764 35.3914 92.8685C36.2293 92.4607 37.1778 92.3049 38.111 92.4221C39.0442 92.5392 39.9178 92.9236 40.6155 93.5242C41.3132 94.1248 41.8021 94.9131 42.017 95.7842Z" fill="#FFB8B8"/>
<path d="M61.3523 105.835C61.4094 105.569 61.5262 105.318 61.6947 105.099C61.8632 104.88 62.0795 104.698 62.3287 104.565L71.0335 99.9385C72.1901 99.0906 73.6531 98.7131 75.102 98.8887C76.5509 99.0644 77.8674 99.7789 78.7631 100.876C79.6587 101.972 80.0604 103.362 79.8801 104.74C79.6999 106.118 78.9523 107.371 77.8013 108.226L70.8609 115.077C70.6629 115.273 70.4228 115.425 70.157 115.525C69.8913 115.624 69.6062 115.668 69.3211 115.653C69.0359 115.638 68.7575 115.565 68.5048 115.439C68.2521 115.312 68.0309 115.136 67.8565 114.921L61.7258 107.368C61.5512 107.153 61.4275 106.905 61.363 106.64C61.2986 106.376 61.2949 106.101 61.3523 105.835Z" fill="#2C3590"/>
<path d="M91.3688 92.3683C89.6996 92.3565 88.0608 91.9428 86.6054 91.1659C85.15 90.389 83.9254 89.2742 83.0459 87.9256C82.9504 87.7834 82.4284 87.0545 81.824 86.2109C80.1254 83.84 79.7271 83.2759 79.6933 83.1931C79.2337 82.0658 77.7747 81.6305 76.6318 81.4637C76.4185 81.4325 76.2023 81.4051 75.9852 81.3772C74.3755 81.1722 72.711 80.9603 71.7984 79.2784C71.1289 78.0442 70.0341 73.0182 70.8749 71.7901C71.9289 70.2496 73.953 70.7497 75.9104 71.2338C77.1629 71.5429 78.4578 71.8631 79.4897 71.6589C83.9625 70.7743 89.0321 69.7717 93.5092 72.3636C97.0725 74.4258 99.2158 78.3209 99.1026 82.5286C98.9811 87.0471 96.908 90.6138 93.5569 92.0698L92.8593 92.2629L92.4669 92.3088C92.1023 92.3483 91.7357 92.3682 91.3688 92.3683Z" fill="#2F2E41"/>
<path d="M339.103 76.3105C336.311 76.3108 333.603 77.2245 331.436 78.8982C329.268 80.5719 327.772 82.9037 327.2 85.5019C326.627 88.1001 327.013 90.8065 328.292 93.1664C329.57 95.5263 331.665 97.3961 334.222 98.4616C334.171 97.5724 334.242 96.6806 334.434 95.8088C334.668 94.8695 335.998 89.5072 335.998 89.5072C335.732 88.9316 335.599 88.3088 335.607 87.6802C335.607 85.9668 336.649 84.6869 337.952 84.6869C339.06 84.6869 339.592 85.4765 339.592 86.421C339.592 87.479 338.881 89.0582 338.517 90.524C338.444 90.7955 338.44 91.0794 338.504 91.3528C338.568 91.6262 338.699 91.8815 338.886 92.0979C339.073 92.3144 339.311 92.4861 339.581 92.5991C339.851 92.712 340.145 92.7632 340.439 92.7484C342.741 92.7484 344.294 89.9356 344.294 86.6016C344.294 84.0675 342.497 82.1734 339.234 82.1734C335.547 82.1734 333.245 84.7901 333.245 87.7112C333.209 88.5349 333.495 89.3422 334.049 89.9769C334.146 90.0531 334.215 90.1566 334.246 90.2725C334.277 90.3885 334.269 90.5109 334.222 90.622C334.163 90.8336 334.032 91.3446 333.973 91.551C333.962 91.6134 333.936 91.6726 333.897 91.7236C333.858 91.7746 333.806 91.8159 333.747 91.8442C333.687 91.8724 333.622 91.8868 333.555 91.8861C333.489 91.8854 333.423 91.8696 333.364 91.84C331.665 91.1794 330.872 89.4143 330.872 87.4222C330.872 84.1398 333.788 80.2019 339.565 80.2019C344.207 80.2019 347.264 83.3966 347.264 86.8235C347.264 91.3601 344.609 94.7457 340.7 94.7457C339.386 94.7457 338.153 94.0696 337.73 93.3058C337.73 93.3058 337.024 95.9688 336.872 96.4849C336.591 97.3618 336.18 98.1961 335.65 98.9622C337.323 99.4318 339.082 99.554 340.809 99.3205C342.536 99.087 344.19 98.5032 345.658 97.6087C347.127 96.7142 348.376 95.53 349.32 94.1363C350.265 92.7427 350.884 91.1722 351.134 89.5314C351.384 87.8905 351.26 86.2178 350.77 84.6265C350.28 83.0353 349.436 81.5627 348.295 80.3088C347.154 79.0549 345.743 78.0488 344.157 77.359C342.571 76.6691 340.847 76.3116 339.103 76.3105Z" fill="#3F3D56"/>
<path d="M270.618 38.3935L254.975 33.8188C254.777 33.7507 254.567 33.7204 254.356 33.7298C254.146 33.7392 253.939 33.788 253.749 33.8734C253.558 33.9588 253.387 34.0791 253.246 34.2275C253.104 34.3759 252.995 34.5494 252.924 34.738L248.101 49.6405C247.982 50.0446 248.031 50.4767 248.237 50.8478C248.443 51.2189 248.791 51.5009 249.209 51.6356L264.847 56.209C265.263 56.314 265.706 56.2588 266.08 56.0553C266.454 55.8519 266.729 55.5165 266.844 55.122L271.668 40.2194C271.731 40.0341 271.754 39.8384 271.735 39.6444C271.716 39.4503 271.656 39.2619 271.558 39.0909C271.459 38.9199 271.325 38.7698 271.163 38.6498C271.002 38.5299 270.816 38.4427 270.618 38.3935ZM254.377 49.9008L251.692 49.1155L254.26 41.1794L256.945 41.9647L254.377 49.9008ZM256.086 40.3926L256.067 40.387C255.681 40.2716 255.36 40.0156 255.172 39.6752C254.985 39.3347 254.947 38.9375 255.067 38.5706C255.187 38.2037 255.456 37.8971 255.813 37.7178C256.171 37.5386 256.588 37.5014 256.975 37.6144C257.361 37.7274 257.685 37.9813 257.874 38.3206C258.064 38.6599 258.105 39.0568 257.987 39.4245C257.87 39.7921 257.603 40.1004 257.247 40.2819C256.891 40.4634 256.473 40.5032 256.086 40.3926ZM264.19 52.7707L261.505 51.9854L262.91 47.6462C263.246 46.6066 263.085 45.782 262.114 45.4979C261.809 45.4113 261.484 45.4167 261.183 45.5134C260.881 45.61 260.619 45.7931 260.432 46.0374C260.295 46.2181 260.195 46.4215 260.136 46.637L258.673 51.1572L255.988 50.372L258.557 42.4359L261.242 43.2212L260.884 44.3256C261.259 43.9951 261.72 43.7666 262.22 43.6642C262.719 43.5618 263.239 43.5893 263.723 43.7436C265.486 44.2591 266.462 45.7535 265.691 48.1345L264.19 52.7707Z" fill="#3F3D56"/>
<path fill-rule="evenodd" clip-rule="evenodd" d="M30.8775 101.23C30.8771 99.0274 30.2128 96.8713 28.9634 95.0166C27.7139 93.162 25.9316 91.6865 23.8273 90.7648C21.7231 89.8431 19.3851 89.5139 17.0902 89.816C14.7952 90.1182 12.6394 91.0391 10.878 92.4697C9.11648 93.9003 7.82312 95.7808 7.15098 97.8884C6.47884 99.9961 6.45608 102.243 7.08538 104.362C7.71468 106.482 8.9697 108.386 10.7019 109.848C12.434 111.311 14.5708 112.271 16.8592 112.615V104.562H13.78V101.23H16.8592V98.6902C16.8592 95.8023 18.6697 94.2058 21.4387 94.2058C22.348 94.2178 23.2553 94.2931 24.153 94.4311V97.2676H22.6235C21.1183 97.2676 20.6474 98.1556 20.6474 99.0683V101.23H24.0096L23.4727 104.563H20.6474V112.616C23.4994 112.187 26.0967 110.804 27.972 108.717C29.8474 106.63 30.8776 103.975 30.8775 101.23L30.8775 101.23Z" fill="#3F3D56"/>
<path d="M356.793 237.58C356.792 237.691 356.746 237.798 356.663 237.877C356.58 237.955 356.468 238 356.351 238H0.441575C0.324462 238 0.212145 237.956 0.129334 237.877C0.0465226 237.798 0 237.692 0 237.58C0 237.469 0.0465226 237.362 0.129334 237.283C0.212145 237.205 0.324462 237.161 0.441575 237.161H356.351C356.468 237.161 356.58 237.205 356.663 237.284C356.746 237.362 356.792 237.469 356.793 237.58Z" fill="#3F3D56"/>
</g>
<defs>
<clipPath id="clip0">
<rect width="357" height="238" fill="white"/>
</clipPath>
</defs>
</svg>
