<svg width="437" height="255" viewBox="0 0 437 255" fill="none" xmlns="http://www.w3.org/2000/svg">
<g clip-path="url(#clip0)">
<path d="M253.567 249.342C250.32 251.279 246.8 252.877 243.086 254.1C242.113 254.424 241.135 254.726 240.14 255H189.368C189.163 254.703 188.963 254.402 188.758 254.1C184.639 247.966 180.904 241.593 179.844 234.663C178.574 226.343 182.136 216.921 190.941 212.833C192.095 212.298 193.317 211.872 194.584 211.564C195.109 211.43 195.644 211.322 196.184 211.227C199.485 210.618 202.921 210.751 206.139 211.612C209.358 212.474 212.242 214.033 214.496 216.13C216.75 218.226 218.292 220.785 218.964 223.542C219.636 226.298 219.413 229.154 218.319 231.816C225.784 225.448 224.389 215.122 221.816 206.491C219.238 197.861 216.114 188.255 221.362 180.501C224.276 176.188 229.405 173.512 235.156 172.433C235.335 172.401 235.513 172.37 235.686 172.343C242.543 171.187 249.671 172.227 255.648 175.253C266.653 181.018 272.301 191.96 274.134 202.673C277.09 219.916 270.55 239.156 253.567 249.342Z" fill="#F2F2F2"/>
<path d="M200.168 216.723C204.233 223.589 205.529 231.363 203.865 238.891C202.61 244.41 199.843 249.615 195.779 254.101C195.503 254.406 195.222 254.708 194.936 255H192.93C193.239 254.708 193.541 254.406 193.828 254.101C197.519 250.275 200.195 245.842 201.68 241.095C203.165 236.347 203.425 231.392 202.444 226.554C201.279 221.112 198.586 215.976 194.584 211.565C195.109 211.43 195.644 211.322 196.184 211.227C197.706 212.957 199.04 214.796 200.168 216.723Z" fill="white"/>
<path d="M248.74 221.702C248.306 225.505 247.208 229.235 245.48 232.774C243.888 235.906 241.742 238.823 239.113 241.427C233.746 246.801 226.643 250.845 218.93 253.534C218.368 253.732 217.8 253.921 217.227 254.101C216.232 254.424 215.227 254.721 214.216 255H208.741C210.033 254.73 211.319 254.429 212.589 254.101C215.61 253.319 218.556 252.352 221.405 251.209C228.647 248.353 234.936 244.061 239.718 238.711C244.848 232.819 247.113 225.736 247.502 218.536C247.913 210.832 246.707 202.988 244.594 195.491C242.437 187.807 239.157 180.371 234.827 173.351C234.73 173.192 234.71 173.008 234.771 172.837C234.833 172.666 234.97 172.522 235.156 172.433C235.312 172.347 235.502 172.315 235.686 172.343C235.776 172.362 235.86 172.398 235.931 172.448C236.002 172.498 236.059 172.56 236.097 172.631C236.632 173.499 237.156 174.367 237.659 175.244C241.856 182.556 244.948 190.272 246.864 198.216C248.718 205.88 249.713 213.899 248.74 221.702Z" fill="white"/>
<path d="M22.9561 127.275C18.466 127.275 14.0768 126.167 10.3434 124.092C6.61007 122.016 3.70028 119.066 1.98201 115.615C0.263738 112.163 -0.185834 108.365 0.690133 104.701C1.5661 101.037 3.72827 97.6714 6.90322 95.0298C10.0782 92.3881 14.1233 90.5891 18.5271 89.8603C22.9309 89.1314 27.4955 89.5055 31.6438 90.9352C35.7921 92.3648 39.3377 94.7858 41.8322 97.8921C44.3268 100.998 45.6582 104.65 45.6582 108.386C45.6514 113.394 43.2574 118.195 39.0014 121.736C34.7454 125.278 28.975 127.269 22.9561 127.275ZM22.9561 90.3968C18.6798 90.3968 14.4996 91.4519 10.944 93.4286C7.38846 95.4053 4.61723 98.2148 2.98078 101.502C1.34433 104.789 0.916157 108.406 1.75041 111.896C2.58467 115.385 4.64388 118.591 7.66764 121.107C10.6914 123.623 14.5439 125.336 18.738 126.03C22.9321 126.724 27.2794 126.368 31.2301 125.006C35.1808 123.645 38.5576 121.339 40.9333 118.381C43.3091 115.422 44.5772 111.944 44.5772 108.386C44.5707 103.617 42.2907 99.0442 38.2373 95.6717C34.184 92.2992 28.6883 90.4022 22.9561 90.3968Z" fill="#3F3D56"/>
<path d="M114.846 66.5607C110.356 66.5607 105.966 65.4529 102.233 63.3774C98.4997 61.3018 95.5899 58.3518 93.8717 54.9003C92.1534 51.4488 91.7038 47.6509 92.5798 43.9868C93.4557 40.3227 95.6179 36.957 98.7929 34.3154C101.968 31.6737 106.013 29.8747 110.417 29.1459C114.821 28.4171 119.385 28.7911 123.533 30.2208C127.682 31.6505 131.227 34.0715 133.722 37.1777C136.216 40.284 137.548 43.936 137.548 47.6719C137.541 52.6798 135.147 57.4809 130.891 61.022C126.635 64.5632 120.865 66.5551 114.846 66.5607ZM114.846 29.6824C110.569 29.6824 106.389 30.7375 102.834 32.7142C99.2781 34.6909 96.5069 37.5005 94.8704 40.7876C93.234 44.0747 92.8058 47.6918 93.6401 51.1814C94.4743 54.671 96.5335 57.8764 99.5573 60.3923C102.581 62.9082 106.434 64.6215 110.628 65.3156C114.822 66.0097 119.169 65.6535 123.12 64.2919C127.071 62.9303 130.447 60.6246 132.823 57.6662C135.199 54.7079 136.467 51.2298 136.467 47.6719C136.46 42.9024 134.18 38.3299 130.127 34.9574C126.074 31.5849 120.578 29.6878 114.846 29.6824Z" fill="#3F3D56"/>
<path d="M213.222 37.7778C208.732 37.7778 204.342 36.67 200.609 34.5944C196.876 32.5189 193.966 29.5689 192.248 26.1174C190.529 22.6659 190.08 18.8679 190.956 15.2039C191.832 11.5398 193.994 8.17409 197.169 5.53243C200.344 2.89077 204.389 1.09178 208.793 0.362953C213.197 -0.365879 217.761 0.00818547 221.909 1.43784C226.058 2.8675 229.603 5.28853 232.098 8.39479C234.592 11.501 235.924 15.153 235.924 18.8889C235.917 23.8968 233.523 28.698 229.267 32.2391C225.011 35.7802 219.241 37.7721 213.222 37.7778ZM213.222 0.899477C208.945 0.899477 204.765 1.95454 201.21 3.93124C197.654 5.90794 194.883 8.7175 193.246 12.0046C191.61 15.2918 191.182 18.9089 192.016 22.3985C192.85 25.8881 194.909 29.0935 197.933 31.6093C200.957 34.1252 204.81 35.8385 209.004 36.5327C213.198 37.2268 217.545 36.8705 221.496 35.5089C225.446 34.1474 228.823 31.8416 231.199 28.8833C233.575 25.9249 234.843 22.4469 234.843 18.8889C234.836 14.1195 232.556 9.5469 228.503 6.1744C224.45 2.80189 218.954 0.904859 213.222 0.899477Z" fill="#3F3D56"/>
<path d="M318.084 67.4604C313.594 67.4604 309.205 66.3526 305.471 64.2771C301.738 62.2015 298.828 59.2515 297.11 55.8C295.392 52.3485 294.942 48.5506 295.818 44.8865C296.694 41.2224 298.856 37.8567 302.031 35.2151C305.206 32.5734 309.251 30.7744 313.655 30.0456C318.059 29.3167 322.623 29.6908 326.772 31.1205C330.92 32.5501 334.466 34.9711 336.96 38.0774C339.455 41.1837 340.786 44.8356 340.786 48.5715C340.779 53.5794 338.385 58.3806 334.129 61.9217C329.873 65.4628 324.103 67.4547 318.084 67.4604ZM318.084 30.5821C313.808 30.5821 309.628 31.6372 306.072 33.6139C302.516 35.5906 299.745 38.4001 298.109 41.6873C296.472 44.9744 296.044 48.5915 296.878 52.0811C297.713 55.5707 299.772 58.7761 302.796 61.292C305.819 63.8078 309.672 65.5211 313.866 66.2153C318.06 66.9094 322.407 66.5531 326.358 65.1916C330.309 63.83 333.686 61.5242 336.061 58.5659C338.437 55.6076 339.705 52.1295 339.705 48.5715C339.699 43.8021 337.419 39.2295 333.365 35.857C329.312 32.4845 323.816 30.5875 318.084 30.5821Z" fill="#3F3D56"/>
<path d="M414.298 112.883C409.808 112.883 405.419 111.776 401.685 109.7C397.952 107.625 395.042 104.675 393.324 101.223C391.606 97.7716 391.156 93.9737 392.032 90.3096C392.908 86.6455 395.07 83.2798 398.245 80.6382C401.42 77.9965 405.465 76.1975 409.869 75.4687C414.273 74.7398 418.837 75.1139 422.986 76.5436C427.134 77.9732 430.679 80.3942 433.174 83.5005C435.669 86.6068 437 90.2587 437 93.9946C436.993 99.0025 434.599 103.804 430.343 107.345C426.087 110.886 420.317 112.878 414.298 112.883ZM414.298 76.0052C410.022 76.0052 405.841 77.0603 402.286 79.037C398.73 81.0137 395.959 83.8232 394.323 87.1104C392.686 90.3975 392.258 94.0146 393.092 97.5042C393.926 100.994 395.986 104.199 399.009 106.715C402.033 109.231 405.886 110.944 410.08 111.638C414.274 112.332 418.621 111.976 422.572 110.615C426.523 109.253 429.899 106.947 432.275 103.989C434.651 101.031 435.919 97.5526 435.919 93.9946C435.913 89.2252 433.633 84.6526 429.579 81.2801C425.526 77.9076 420.03 76.0106 414.298 76.0052Z" fill="#3F3D56"/>
<path d="M127.818 42.499L130.521 42.0492C130.521 42.0492 128.251 44.163 127.818 44.2979C127.778 44.747 127.778 45.198 127.818 45.6471C122.629 64.1762 103.495 55.991 103.495 55.991C110.467 56.126 111.062 53.7424 111.062 53.7424C107.008 53.2476 106.197 51.0439 106.197 51.0439C106.561 51.2036 106.983 51.246 107.382 51.163C107.781 51.08 108.129 50.8775 108.359 50.5942C103.981 49.6498 104.576 46.0969 104.576 46.0969C105.356 46.5657 106.268 46.8599 107.224 46.9514C106.738 46.4566 102.63 42.3641 105.116 40.2503C105.116 40.2503 108.143 44.7476 116.089 45.1524L116.629 45.0625C116.538 44.7386 116.501 44.4054 116.521 44.073C116.521 42.8206 117.119 41.6195 118.184 40.7339C119.248 39.8483 120.692 39.3508 122.197 39.3508C125.981 39.3508 126.791 41.1498 126.791 41.1498L129.494 39.8006C129.44 39.8006 129.17 42.0492 127.818 42.499Z" fill="#3F3D56"/>
<path d="M300.425 242.692L306.375 245.119L320.457 227.178L311.675 223.596L300.425 242.692Z" fill="#FFB8B8"/>
<path d="M299.859 240.457L311.578 245.236L311.578 245.236C312.559 245.636 313.435 246.193 314.157 246.875C314.879 247.557 315.433 248.35 315.786 249.21C316.14 250.07 316.286 250.979 316.217 251.886C316.149 252.793 315.866 253.68 315.385 254.496L315.266 254.697L296.08 246.872L299.859 240.457Z" fill="#2F2E41"/>
<path d="M359.393 251.152L366.02 251.151L369.172 229.885H359.392L359.393 251.152Z" fill="#FFB8B8"/>
<path d="M357.702 247.553L370.753 247.552H370.753C371.845 247.552 372.927 247.731 373.936 248.079C374.945 248.427 375.862 248.936 376.634 249.579C377.407 250.222 378.019 250.984 378.437 251.824C378.855 252.663 379.07 253.563 379.07 254.472V254.697L357.703 254.698L357.702 247.553Z" fill="#2F2E41"/>
<path d="M345.158 104.379C352.491 104.379 358.434 99.4334 358.434 93.3328C358.434 87.2323 352.491 82.2869 345.158 82.2869C337.826 82.2869 331.883 87.2323 331.883 93.3328C331.883 99.4334 337.826 104.379 345.158 104.379Z" fill="#FFB8B8"/>
<path d="M358.379 244.137C357.752 244.136 357.151 243.935 356.698 243.574C356.246 243.214 355.979 242.722 355.951 242.201L350.82 185.372C350.814 185.223 350.749 185.08 350.635 184.965C350.521 184.85 350.365 184.77 350.19 184.737C350.016 184.704 349.833 184.719 349.67 184.782C349.507 184.844 349.374 184.949 349.291 185.081L316.464 237.225C316.166 237.692 315.661 238.045 315.055 238.208C314.45 238.37 313.792 238.33 313.222 238.096L304.07 234.289C303.496 234.049 303.059 233.63 302.855 233.123C302.65 232.616 302.694 232.063 302.977 231.583L322.565 198.558L335.539 173.82C340.547 165.613 345.865 161.384 351.796 160.89C357.882 160.385 364.38 163.866 371.667 171.534L371.726 171.597L371.725 171.676L370.644 241.096C370.646 241.601 370.42 242.087 370.012 242.46C369.604 242.832 369.042 243.064 368.439 243.109L358.617 244.128C358.537 244.134 358.457 244.137 358.379 244.137Z" fill="#2F2E41"/>
<path d="M331.147 177.815C331.869 177.445 332.485 176.946 332.951 176.356C333.417 175.766 333.722 175.098 333.844 174.399C333.966 173.7 333.902 172.987 333.657 172.311C333.413 171.634 332.993 171.011 332.427 170.484L334.429 126.475L324.699 127.484L323.879 170.298C322.879 171.148 322.288 172.273 322.218 173.461C322.148 174.648 322.604 175.816 323.5 176.743C324.396 177.669 325.669 178.29 327.078 178.488C328.488 178.686 329.935 178.446 331.147 177.815Z" fill="#FFB8B8"/>
<path d="M337.301 134.256L324.236 133.021C323.864 132.985 323.505 132.884 323.185 132.723C322.865 132.563 322.59 132.346 322.379 132.089C322.168 131.832 322.026 131.54 321.963 131.233C321.9 130.926 321.917 130.612 322.014 130.311L325.387 119.77C325.614 118.189 326.585 116.747 328.088 115.76C329.591 114.774 331.503 114.324 333.404 114.508C335.305 114.693 337.041 115.497 338.231 116.744C339.421 117.992 339.967 119.581 339.751 121.164L340.197 132.03C340.21 132.341 340.142 132.651 339.998 132.938C339.854 133.226 339.637 133.484 339.362 133.695C339.087 133.906 338.761 134.065 338.405 134.162C338.05 134.259 337.673 134.291 337.301 134.256V134.256Z" fill="#2C3590"/>
<path d="M393.584 106.552C393.518 106.795 393.475 107.042 393.455 107.29L370.235 118.435L364.592 115.732L358.575 122.286L368.007 127.879C368.769 128.331 369.687 128.565 370.622 128.546C371.558 128.527 372.461 128.256 373.195 127.774L397.139 112.058C398.219 112.39 399.396 112.442 400.513 112.204C401.629 111.967 402.632 111.453 403.388 110.73C404.145 110.007 404.619 109.109 404.747 108.156C404.876 107.203 404.652 106.241 404.107 105.396C403.562 104.552 402.72 103.865 401.695 103.428C400.669 102.991 399.508 102.825 398.366 102.95C397.223 103.076 396.154 103.487 395.3 104.131C394.446 104.774 393.848 105.619 393.584 106.552Z" fill="#FFB8B8"/>
<path d="M369.459 118.963L361.955 127.056C361.741 127.286 361.47 127.475 361.161 127.61C360.852 127.746 360.511 127.824 360.162 127.84C359.813 127.856 359.464 127.809 359.139 127.703C358.813 127.596 358.519 127.433 358.277 127.223L349.781 119.883C348.37 118.968 347.454 117.624 347.232 116.147C347.01 114.67 347.502 113.18 348.599 112.004C349.696 110.828 351.309 110.063 353.084 109.875C354.858 109.687 356.65 110.093 358.066 111.003L368.721 115.961C369.026 116.103 369.291 116.298 369.497 116.532C369.703 116.767 369.846 117.036 369.916 117.321C369.987 117.606 369.982 117.9 369.903 118.184C369.824 118.467 369.673 118.733 369.459 118.963H369.459Z" fill="#2C3590"/>
<path d="M375.581 174.976L361.174 116.587C360.489 113.812 358.538 111.365 355.731 109.762C352.924 108.159 349.479 107.523 346.12 107.989L341.315 108.655C339.646 108.887 338.048 109.389 336.613 110.135C335.177 110.88 333.932 111.853 332.948 112.999C331.385 114.819 330.333 116.908 329.868 119.111C329.402 121.314 329.537 123.576 330.26 125.731L338.213 149.412L332.311 174.782C332.245 175.064 332.261 175.354 332.357 175.629C332.454 175.904 332.628 176.156 332.865 176.364C333.103 176.572 333.396 176.729 333.722 176.824C334.047 176.918 334.395 176.946 334.736 176.905C337.691 176.553 342.561 176.051 348.155 175.778L351.185 166.052L352.418 175.623C359.289 175.463 366.748 175.743 372.902 177.074C373.258 177.153 373.632 177.155 373.989 177.08C374.347 177.005 374.675 176.855 374.943 176.645C375.212 176.435 375.411 176.172 375.523 175.879C375.634 175.587 375.654 175.276 375.581 174.976Z" fill="#2C3590"/>
<path d="M350.267 90.8752C353.679 92.8183 358.159 94.8156 361.644 92.7464C363.933 91.3877 364.654 88.8717 363.726 86.6638C362.057 82.6933 357.472 80.9453 353.088 79.6054C347.388 77.8635 341.182 76.4778 335.299 77.7252C329.415 78.9727 324.215 83.7125 325.277 88.6866C326.131 92.6867 330.666 96.015 330.022 100.042C329.374 104.095 323.896 106.229 319.059 106.953C314.223 107.678 308.811 107.91 305.335 110.801C300.901 114.488 302.008 121.079 306.181 124.972C310.353 128.865 316.649 130.629 322.75 131.829C330.833 133.418 339.576 134.254 347.253 131.616C354.93 128.978 360.904 121.877 358.68 115.219C357.741 112.406 355.528 110.029 353.389 107.715C351.251 105.401 349.085 102.981 348.269 100.142C347.59 97.7761 348.093 95.0292 349.978 93.2544C350.321 92.9438 350.537 92.5507 350.595 92.1317C350.653 91.7126 350.549 91.2891 350.3 90.9219L350.267 90.8752Z" fill="#2F2E41"/>
<path d="M219.405 9.54461C220.917 9.54837 222.366 10.0499 223.436 10.9396C224.505 11.8293 225.108 13.0349 225.112 14.2931V23.7892C225.108 25.0474 224.505 26.2531 223.436 27.1428C222.366 28.0325 220.917 28.534 219.405 28.5377H207.992C206.48 28.534 205.031 28.0325 203.961 27.1428C202.892 26.2531 202.289 25.0474 202.285 23.7892V14.2931C202.289 13.0349 202.892 11.8293 203.961 10.9396C205.031 10.0499 206.48 9.54837 207.992 9.54461H219.405ZM219.405 7.64551H207.992C205.875 7.65064 203.846 8.35266 202.349 9.59822C200.852 10.8438 200.008 12.5317 200.002 14.2931V23.7892C200.008 25.5507 200.852 27.2386 202.349 28.4841C203.846 29.7297 205.875 30.4317 207.992 30.4368H219.405C221.522 30.4317 223.551 29.7297 225.048 28.4841C226.545 27.2386 227.388 25.5507 227.395 23.7892V14.2931C227.388 12.5317 226.545 10.8438 225.048 9.59822C223.551 8.35266 221.522 7.65064 219.405 7.64551Z" fill="#3F3D56"/>
<path d="M221.117 14.2932C220.664 14.2924 220.23 14.1421 219.911 13.8753C219.591 13.6085 219.412 13.247 219.412 12.8703C219.413 12.4936 219.593 12.1324 219.913 11.8662C220.234 11.6 220.668 11.4504 221.121 11.4504C221.573 11.4504 222.008 11.6 222.328 11.8662C222.648 12.1324 222.828 12.4936 222.829 12.8703C222.829 13.247 222.65 13.6085 222.331 13.8753C222.011 14.1421 221.577 14.2924 221.124 14.2932C221.122 14.2932 221.119 14.2932 221.117 14.2932Z" fill="#3F3D56"/>
<path d="M213.698 15.2424C214.601 15.2424 215.484 15.4652 216.235 15.8826C216.986 16.3 217.571 16.8933 217.916 17.5874C218.262 18.2815 218.352 19.0453 218.176 19.7822C218 20.5191 217.565 21.1959 216.927 21.7272C216.288 22.2585 215.475 22.6202 214.589 22.7668C213.703 22.9134 212.785 22.8382 211.951 22.5507C211.117 22.2631 210.404 21.7762 209.902 21.1515C209.401 20.5269 209.133 19.7924 209.133 19.0411C209.133 18.0336 209.614 17.0674 210.47 16.355C211.326 15.6426 212.487 15.2424 213.698 15.2424ZM213.698 13.3433C212.344 13.3433 211.02 13.6774 209.894 14.3035C208.768 14.9296 207.89 15.8195 207.371 16.8606C206.853 17.9018 206.718 19.0474 206.982 20.1527C207.246 21.2579 207.898 22.2732 208.856 23.0701C209.814 23.8669 211.034 24.4096 212.362 24.6294C213.691 24.8493 215.068 24.7365 216.319 24.3052C217.57 23.8739 218.64 23.1436 219.392 22.2066C220.145 21.2696 220.546 20.168 220.546 19.0411C220.546 17.5299 219.825 16.0807 218.541 15.0121C217.256 13.9436 215.515 13.3433 213.698 13.3433V13.3433Z" fill="#3F3D56"/>
<path d="M88.1967 249.032L81.7466 247.768L84.5384 226.466L94.0582 228.332L88.1967 249.032Z" fill="#FFB8B8"/>
<path d="M88.3687 254.557L67.5708 250.48L67.6328 250.261C67.8832 249.377 68.3405 248.542 68.9787 247.805C69.6169 247.067 70.4234 246.442 71.3522 245.963C72.281 245.485 73.3138 245.164 74.3918 245.018C75.4698 244.872 76.5718 244.904 77.6349 245.113L77.6354 245.113L90.338 247.603L88.3687 254.557Z" fill="#2F2E41"/>
<path d="M113.332 249.212H106.705L103.553 227.945L113.333 227.946L113.332 249.212Z" fill="#FFB8B8"/>
<path d="M115.022 254.557L93.6549 254.556V254.332C93.6549 253.423 93.87 252.523 94.288 251.683C94.7059 250.844 95.3185 250.081 96.0908 249.439C96.8631 248.796 97.7799 248.286 98.789 247.939C99.798 247.591 100.88 247.412 101.972 247.412H101.972L115.023 247.412L115.022 254.557Z" fill="#2F2E41"/>
<path d="M149.123 165.105C149.567 164.503 149.846 163.827 149.943 163.125C150.039 162.424 149.949 161.713 149.679 161.043C149.409 160.373 148.966 159.761 148.381 159.249C147.796 158.737 147.084 158.338 146.293 158.081L126.891 117.144L116.097 122.596L138.562 161.121C138.13 162.254 138.212 163.481 138.793 164.567C139.374 165.653 140.414 166.525 141.716 167.016C143.018 167.507 144.49 167.583 145.856 167.231C147.221 166.879 148.383 166.123 149.123 165.105Z" fill="#FFB8B8"/>
<path d="M131.015 123.914L118.683 127.713C118.332 127.821 117.957 127.864 117.584 127.841C117.211 127.818 116.848 127.728 116.521 127.577C116.193 127.427 115.908 127.22 115.686 126.969C115.463 126.719 115.308 126.432 115.231 126.127L112.531 115.453C111.877 113.956 111.962 112.305 112.77 110.861C113.577 109.416 115.039 108.297 116.836 107.749C118.633 107.2 120.618 107.267 122.356 107.935C124.094 108.602 125.443 109.816 126.108 111.309L132.394 120.841C132.574 121.114 132.681 121.416 132.708 121.727C132.735 122.037 132.681 122.349 132.55 122.641C132.419 122.932 132.214 123.197 131.949 123.417C131.684 123.637 131.366 123.806 131.015 123.914V123.914Z" fill="#2C3590"/>
<path d="M112.892 241.578C112.86 241.578 112.827 241.577 112.795 241.577L103.402 241.264C102.767 241.246 102.166 241.021 101.729 240.637C101.292 240.253 101.055 239.742 101.067 239.214L101.788 196.039C101.791 195.866 101.713 195.698 101.571 195.57C101.429 195.443 101.233 195.366 101.025 195.356C100.817 195.346 100.611 195.403 100.452 195.515C100.293 195.627 100.192 195.786 100.17 195.959L94.7215 239.181C94.6648 239.621 94.4369 240.034 94.0724 240.356C93.7079 240.678 93.2268 240.893 92.7023 240.967L92.6697 240.971L83.8517 240.394C83.5041 240.438 83.1492 240.419 82.8114 240.338C82.4736 240.257 82.1609 240.116 81.8949 239.925C81.6289 239.734 81.4159 239.497 81.2706 239.23C81.1253 238.964 81.0511 238.674 81.0531 238.382L81.5803 165.174L124.85 167.453L115.31 239.775C115.243 240.27 114.959 240.727 114.514 241.06C114.068 241.392 113.491 241.576 112.892 241.578Z" fill="#2F2E41"/>
<path d="M104.983 101.267C112.315 101.267 118.259 96.3215 118.259 90.221C118.259 84.1205 112.315 79.175 104.983 79.175C97.6509 79.175 91.707 84.1205 91.707 90.221C91.707 96.3215 97.6509 101.267 104.983 101.267Z" fill="#FFB8B8"/>
<path d="M122.699 170.676C122.638 170.676 122.576 170.674 122.515 170.671L82.5248 168.236C81.9031 168.199 81.3226 167.964 80.9031 167.58C80.4835 167.197 80.257 166.694 80.2703 166.175L81.3247 124.393C81.2541 121.829 81.8129 119.28 82.9671 116.903C84.1212 114.525 85.8464 112.368 88.037 110.564C90.2276 108.76 92.8376 107.348 95.7072 106.412C98.5768 105.476 101.646 105.038 104.726 105.123C107.806 105.209 110.833 105.816 113.622 106.908C116.41 108.001 118.901 109.555 120.943 111.476C122.984 113.397 124.533 115.645 125.494 118.081C126.456 120.518 126.81 123.092 126.534 125.646C125.835 132.085 125.279 160.217 125.125 168.686C125.115 169.216 124.855 169.722 124.401 170.094C123.947 170.466 123.336 170.675 122.699 170.676Z" fill="#2C3590"/>
<path d="M51.4326 102.626C51.499 102.868 51.5423 103.115 51.562 103.363L74.7817 114.509L80.4256 111.805L86.4423 118.359L77.0099 123.953C76.2479 124.405 75.3302 124.639 74.3948 124.62C73.4593 124.601 72.5564 124.33 71.8218 123.848L47.8783 108.131C46.7977 108.464 45.621 108.515 44.5046 108.278C43.3882 108.041 42.3851 107.526 41.6286 106.803C40.8722 106.08 40.3983 105.182 40.2699 104.23C40.1416 103.277 40.3649 102.314 40.9101 101.47C41.4554 100.625 42.2968 99.9388 43.3223 99.5019C44.3479 99.0649 45.509 98.898 46.6513 99.0235C47.7936 99.149 48.8629 99.5609 49.717 100.204C50.5711 100.848 51.1695 101.692 51.4326 102.626Z" fill="#FFB8B8"/>
<path d="M75.1007 113.395C75.1706 113.11 75.3136 112.841 75.5198 112.606C75.7261 112.371 75.9908 112.176 76.296 112.034L86.9514 107.077C88.3671 106.168 90.158 105.764 91.9316 105.952C93.7052 106.14 95.3167 106.906 96.4131 108.081C97.5094 109.256 98.0012 110.745 97.7805 112.221C97.5598 113.697 96.6447 115.041 95.2358 115.957L86.7402 123.297C86.4977 123.506 86.2038 123.67 85.8785 123.776C85.5532 123.883 85.2042 123.93 84.8552 123.914C84.5062 123.898 84.1654 123.819 83.856 123.684C83.5466 123.549 83.276 123.359 83.0625 123.129L75.5579 115.037C75.3442 114.806 75.1928 114.541 75.1138 114.257C75.0349 113.974 75.0305 113.68 75.1007 113.395Z" fill="#2C3590"/>
<path d="M111.844 98.966C109.8 98.9534 107.794 98.5102 106.013 97.6778C104.231 96.8454 102.732 95.651 101.656 94.206C101.539 94.0536 100.9 93.2728 100.16 92.3689C98.0806 89.8286 97.5932 89.2242 97.5518 89.1355C96.9891 87.9277 95.2032 87.4613 93.8042 87.2826C93.5431 87.2492 93.2784 87.2198 93.0128 87.1899C91.0423 86.9703 89.0048 86.7432 87.8877 84.9412C87.0682 83.6188 85.7281 78.2338 86.7573 76.918C88.0475 75.2675 90.5251 75.8033 92.9212 76.322C94.4544 76.6532 96.0394 76.9962 97.3026 76.7775C102.778 75.8297 108.983 74.7554 114.464 77.5324C118.825 79.742 121.449 83.9153 121.31 88.4236C121.162 93.2648 118.624 97.0863 114.522 98.6463L113.668 98.8532L113.188 98.9024C112.742 98.9447 112.293 98.966 111.844 98.966Z" fill="#2F2E41"/>
<path d="M415.093 81.7612C411.674 81.7615 408.36 82.7404 405.707 84.5337C403.054 86.327 401.223 88.8254 400.522 91.6091C399.821 94.3929 400.293 97.2926 401.858 99.8211C403.424 102.35 405.987 104.353 409.118 105.494C409.055 104.542 409.143 103.586 409.377 102.652C409.663 101.646 411.291 95.9005 411.291 95.9005C410.966 95.2838 410.803 94.6165 410.813 93.943C410.813 92.1072 412.089 90.7359 413.684 90.7359C415.04 90.7359 415.691 91.5819 415.691 92.5938C415.691 93.7274 414.82 95.4195 414.375 96.9899C414.286 97.2808 414.281 97.585 414.36 97.878C414.438 98.1709 414.598 98.4444 414.827 98.6763C415.056 98.9082 415.348 99.0922 415.678 99.2132C416.008 99.3342 416.367 99.389 416.728 99.3732C419.546 99.3732 421.446 96.3595 421.446 92.7873C421.446 90.0723 419.247 88.0429 415.252 88.0429C410.74 88.0429 407.922 90.8464 407.922 93.9762C407.877 94.8588 408.228 95.7237 408.905 96.4037C409.024 96.4854 409.109 96.5963 409.147 96.7205C409.185 96.8447 409.175 96.9758 409.118 97.095C409.045 97.3217 408.885 97.8691 408.812 98.0903C408.8 98.1572 408.768 98.2206 408.72 98.2752C408.672 98.3298 408.609 98.3741 408.536 98.4044C408.463 98.4347 408.383 98.4501 408.301 98.4493C408.22 98.4485 408.14 98.4316 408.068 98.4C405.988 97.6922 405.017 95.801 405.017 93.6666C405.017 90.1497 408.586 85.9306 415.658 85.9306C421.34 85.9306 425.082 89.3534 425.082 93.0251C425.082 97.8857 421.832 101.513 417.047 101.513C415.438 101.513 413.93 100.789 413.411 99.9704C413.411 99.9704 412.547 102.824 412.361 103.377C412.018 104.316 411.514 105.21 410.866 106.031C412.913 106.534 415.067 106.665 417.181 106.415C419.295 106.165 421.319 105.539 423.117 104.581C424.914 103.622 426.443 102.353 427.6 100.86C428.756 99.3671 429.513 97.6844 429.819 95.9264C430.125 94.1684 429.974 92.3761 429.374 90.6712C428.775 88.9663 427.741 87.3886 426.345 86.0451C424.948 84.7016 423.22 83.6237 421.279 82.8846C419.337 82.1454 417.228 81.7623 415.093 81.7612Z" fill="#3F3D56"/>
<path d="M331.26 41.1358L312.112 36.2343C311.87 36.1613 311.612 36.129 311.355 36.139C311.097 36.149 310.845 36.2013 310.611 36.2928C310.378 36.3843 310.169 36.5133 309.996 36.6722C309.823 36.8312 309.689 37.0171 309.602 37.2192L303.698 53.1861C303.553 53.6191 303.612 54.082 303.864 54.4797C304.116 54.8773 304.542 55.1794 305.054 55.3238L324.196 60.2238C324.706 60.3363 325.248 60.2772 325.706 60.0592C326.164 59.8412 326.5 59.4819 326.641 59.0592L332.545 43.0922C332.623 42.8936 332.652 42.6839 332.628 42.476C332.605 42.2681 332.531 42.0663 332.411 41.883C332.29 41.6998 332.126 41.539 331.928 41.4104C331.73 41.2819 331.503 41.1885 331.26 41.1358ZM311.38 53.465L308.093 52.6236L311.237 44.1207L314.524 44.9621L311.38 53.465ZM313.473 43.2777L313.449 43.2717C312.977 43.148 312.583 42.8738 312.354 42.509C312.124 42.1442 312.078 41.7187 312.225 41.3256C312.372 40.9325 312.701 40.6039 313.138 40.4119C313.576 40.2198 314.087 40.18 314.56 40.301C315.033 40.4221 315.429 40.6942 315.661 41.0577C315.894 41.4212 315.943 41.8465 315.799 42.2404C315.655 42.6343 315.33 42.9646 314.894 43.1591C314.457 43.3535 313.946 43.3962 313.473 43.2777ZM323.393 56.5399L320.106 55.6986L321.825 51.0494C322.237 49.9355 322.04 49.0521 320.851 48.7477C320.478 48.6549 320.08 48.6607 319.711 48.7642C319.342 48.8677 319.021 49.0639 318.792 49.3257C318.625 49.5193 318.502 49.7372 318.43 49.9681L316.639 54.8112L313.352 53.9699L316.496 45.4669L319.783 46.3083L319.346 47.4916C319.804 47.1375 320.369 46.8927 320.981 46.783C321.592 46.6733 322.228 46.7027 322.821 46.8681C324.979 47.4203 326.173 49.0215 325.23 51.5725L323.393 56.5399Z" fill="#3F3D56"/>
<path fill-rule="evenodd" clip-rule="evenodd" d="M37.7969 108.46C37.7964 106.101 36.9832 103.79 35.4538 101.803C33.9243 99.8162 31.7426 98.2353 29.1668 97.2478C26.5911 96.2603 23.7292 95.9075 20.92 96.2313C18.1107 96.555 15.4718 97.5417 13.3156 99.0745C11.1594 100.607 9.57623 102.622 8.75348 104.88C7.93072 107.138 7.90285 109.546 8.67318 111.816C9.4435 114.087 10.9798 116.127 13.1001 117.694C15.2204 119.261 17.836 120.29 20.6372 120.659V112.031H16.868V108.46H20.6372V105.739C20.6372 102.645 22.8534 100.935 26.2429 100.935C27.356 100.947 28.4666 101.028 29.5655 101.176V104.215H27.6932C25.8507 104.215 25.2743 105.167 25.2743 106.144V108.461H29.3899L28.7327 112.031H25.2743V120.66C28.7654 120.2 31.9448 118.718 34.2403 116.482C36.5359 114.246 37.797 111.401 37.7969 108.46L37.7969 108.46Z" fill="#3F3D56"/>
<path d="M436.746 254.55C436.746 254.669 436.689 254.784 436.587 254.868C436.486 254.952 436.349 255 436.206 255H0.540527C0.397171 255 0.259685 254.953 0.158316 254.868C0.0569478 254.784 0 254.67 0 254.55C0 254.431 0.0569478 254.317 0.158316 254.232C0.259685 254.148 0.397171 254.101 0.540527 254.101H436.206C436.349 254.101 436.486 254.148 436.587 254.233C436.689 254.317 436.746 254.431 436.746 254.55Z" fill="#3F3D56"/>
</g>
<defs>
<clipPath id="clip0">
<rect width="437" height="255" fill="white"/>
</clipPath>
</defs>
</svg>
