<svg width="298" height="225" viewBox="0 0 298 225" fill="none" xmlns="http://www.w3.org/2000/svg">
<g clip-path="url(#clip0)">
<path d="M295.079 224.773C302.299 193.822 295.735 161.269 279.795 137.764L142.949 178.952L272.974 128.79C208.377 56.1722 104.554 124.473 125.697 224.452L295.079 224.773Z" fill="#E6E6E6"/>
<path d="M60.0303 115.652C81.1751 115.652 98.3164 96.005 98.3164 71.7686C98.3164 47.5321 81.1751 27.8846 60.0303 27.8846C38.8855 27.8846 21.7443 47.5321 21.7443 71.7686C21.7443 96.005 38.8855 115.652 60.0303 115.652Z" fill="#E6E6E6"/>
<path d="M111.078 87.8434H83.1699C81.2654 75.2235 81.2654 62.3225 83.1699 49.7026H111.078C107.934 62.1608 107.934 75.3852 111.078 87.8434Z" fill="#FF6584"/>
<path d="M104.886 60.0334H87.9032C87.6101 60.0334 87.3724 59.5958 87.3724 59.055C87.3724 58.5143 87.6101 58.0767 87.9032 58.0767H104.886C105.179 58.0767 105.417 58.5143 105.417 59.055C105.417 59.5958 105.179 60.0334 104.886 60.0334Z" fill="white"/>
<path d="M104.886 69.1097H87.9032C87.6101 69.1097 87.3724 68.6721 87.3724 68.1313C87.3724 67.5905 87.6101 67.153 87.9032 67.153H104.886C105.179 67.153 105.417 67.5905 105.417 68.1313C105.417 68.6721 105.179 69.1097 104.886 69.1097Z" fill="white"/>
<path d="M24.3621 49.1374H60.3171C62.7707 32.879 62.7707 16.2584 60.3171 0H24.3621C28.4127 16.0501 28.4127 33.0873 24.3621 49.1374Z" fill="#2C3590"/>
<path d="M54.6442 14.3163H32.7649C32.3873 14.3163 32.0811 13.7526 32.0811 13.0559C32.0811 12.3592 32.3873 11.7954 32.7649 11.7954H54.6441C55.0217 11.7954 55.3279 12.3592 55.3279 13.0559C55.3279 13.7526 55.0217 14.3163 54.6442 14.3163Z" fill="white"/>
<path d="M54.6442 26.0094H32.7649C32.3873 26.0094 32.0811 25.4457 32.0811 24.749C32.0811 24.0523 32.3873 23.4885 32.7649 23.4885H54.6441C55.0217 23.4885 55.3279 24.0523 55.3279 24.749C55.3279 25.4457 55.0217 26.0094 54.6442 26.0094Z" fill="white"/>
<path d="M54.6442 37.7028H32.7649C32.3873 37.7028 32.0811 37.139 32.0811 36.4423C32.0811 35.7456 32.3873 35.1819 32.7649 35.1819H54.6441C55.0217 35.1819 55.3279 35.7456 55.3279 36.4423C55.3279 37.139 55.0217 37.7028 54.6442 37.7028Z" fill="white"/>
<path d="M0.610554 125.528H36.5656C39.0192 109.27 39.0192 92.6489 36.5656 76.3905H0.610554C4.66117 92.4406 4.66117 109.478 0.610554 125.528Z" fill="#2C3590"/>
<path d="M30.8926 90.7067H9.01334C8.63576 90.7067 8.32961 90.1429 8.32961 89.4462C8.32961 88.7495 8.63575 88.1858 9.01334 88.1858H30.8926C31.2702 88.1858 31.5763 88.7495 31.5763 89.4462C31.5763 90.1429 31.2702 90.7067 30.8926 90.7067Z" fill="white"/>
<path d="M30.8926 102.4H9.01334C8.63576 102.4 8.32961 101.836 8.32961 101.139C8.32961 100.443 8.63575 99.879 9.01334 99.879H30.8926C31.2702 99.879 31.5763 100.443 31.5763 101.139C31.5763 101.836 31.2702 102.4 30.8926 102.4Z" fill="white"/>
<path d="M189.133 211.017L194.317 201.042L186.991 197.683L186.32 198.666C184.642 201.123 183.144 206.315 181.106 208.334" fill="#FFB8B8"/>
<path d="M191.617 212.592L191.364 221.256C191.34 222.073 191.038 222.848 190.523 223.414C190.007 223.98 189.319 224.292 188.605 224.284L182.888 224.219H176.441C176.441 224.219 164.426 223.883 163.84 218.509C163.644 216.717 164.979 215.523 166.846 214.727C171.331 212.83 175.53 210.138 179.288 206.751C179.733 206.342 180.265 206.076 180.83 205.98C181.394 205.884 181.971 205.961 182.501 206.204L189.943 209.644C190.452 209.879 190.886 210.289 191.185 210.816C191.485 211.343 191.635 211.963 191.617 212.592Z" fill="#2F2E41"/>
<path d="M178.194 210.891C178.517 210.891 178.78 210.591 178.78 210.22C178.78 209.849 178.517 209.548 178.194 209.548C177.87 209.548 177.608 209.849 177.608 210.22C177.608 210.591 177.87 210.891 178.194 210.891Z" fill="white"/>
<path d="M180.076 208.549C180.4 208.549 180.662 208.248 180.662 207.877C180.662 207.506 180.4 207.205 180.076 207.205C179.753 207.205 179.49 207.506 179.49 207.877C179.49 208.248 179.753 208.549 180.076 208.549Z" fill="white"/>
<path d="M247.064 197.872L244.576 186.616L237.324 190.179L237.455 191.418C237.785 194.516 239.929 199.401 239.733 202.48" fill="#FFB8B8"/>
<path d="M249.782 196.959L254.841 203.159C255.36 203.795 255.641 204.638 255.625 205.509C255.608 206.38 255.295 207.209 254.752 207.818L250.793 212.268L246.234 217.493C246.234 217.493 237.531 226.994 233.801 223.669C232.558 222.56 232.765 220.634 233.594 218.558C235.608 213.549 236.92 208.208 237.481 202.73C237.541 202.112 237.742 201.522 238.066 201.022C238.389 200.522 238.822 200.129 239.321 199.884L246.805 196.237C247.306 195.993 247.86 195.931 248.392 196.06C248.925 196.189 249.41 196.503 249.782 196.959Z" fill="#2F2E41"/>
<path d="M238.837 206.846C239.161 206.846 239.423 206.545 239.423 206.174C239.423 205.803 239.161 205.502 238.837 205.502C238.513 205.502 238.251 205.803 238.251 206.174C238.251 206.545 238.513 206.846 238.837 206.846Z" fill="white"/>
<path d="M238.723 203.663C239.047 203.663 239.309 203.362 239.309 202.991C239.309 202.62 239.047 202.32 238.723 202.32C238.399 202.32 238.137 202.62 238.137 202.991C238.137 203.362 238.399 203.663 238.723 203.663Z" fill="white"/>
<path d="M203.109 56.6046L206.332 67.0175L214.831 61.3072C214.831 61.3072 210.435 55.261 210.728 51.902L203.109 56.6046Z" fill="#FFB8B8"/>
<path d="M204.134 58.1161C208.666 58.1161 212.34 53.9052 212.34 48.7109C212.34 43.5165 208.666 39.3057 204.134 39.3057C199.603 39.3057 195.929 43.5165 195.929 48.7109C195.929 53.9052 199.603 58.1161 204.134 58.1161Z" fill="#FFB8B8"/>
<path d="M216.003 59.9636L214.284 60.5145C214.284 60.5145 210.728 60.2995 208.97 63.3226C207.211 66.3457 205.911 65.6554 205.911 65.6554L198.713 78.1023C198.713 78.1023 196.368 83.1408 197.248 88.8511C198.127 94.5614 201.057 102.623 201.057 102.623C201.057 102.623 219.813 104.638 220.399 103.631C220.985 102.623 220.399 95.905 220.399 95.905L222.743 66.0098C222.743 66.0098 220.106 60.9713 218.64 60.9713C217.695 60.9348 216.779 60.5848 216.003 59.9636Z" fill="#2C3590"/>
<path d="M221.864 101.615C221.864 101.615 216.882 101.279 214.831 101.951C212.779 102.623 200.471 101.951 200.471 101.951L196.955 127.144L185.525 198.355L197.834 203.729L212.486 163.757L214.245 169.467L236.517 197.347L248.239 191.301L228.897 154.352L222.743 128.487C222.743 128.487 226.553 113.708 221.278 104.638L221.864 101.615Z" fill="#2F2E41"/>
<path opacity="0.2" d="M201.92 128.041L201.367 128.262L212.21 163.868L212.763 163.646L201.92 128.041Z" fill="black"/>
<path d="M219.337 33.8657C218.87 31.749 217.31 30.3755 215.852 30.798C215.835 30.8028 215.82 30.8106 215.804 30.8158C215.969 30.7106 216.145 30.6303 216.328 30.5771C217.786 30.1546 219.346 31.528 219.813 33.6448C220.275 35.7375 219.493 37.7705 218.067 38.2246C219.184 37.5145 219.744 35.7126 219.337 33.8657Z" fill="#2F2E41"/>
<path d="M218.993 37.1597C220.464 35.7727 220.882 33.5691 219.927 32.238C219.916 32.2229 219.903 32.2104 219.892 32.1957C220.046 32.3218 220.184 32.4701 220.304 32.6371C221.26 33.9682 220.841 36.1717 219.37 37.5588C217.916 38.9302 215.979 38.9876 215.012 37.7024C216.049 38.5582 217.71 38.37 218.993 37.1597Z" fill="#2F2E41"/>
<path d="M219.85 37.8121C220.649 36.3523 219.99 34.2277 218.377 33.0667C216.763 31.9057 214.807 32.148 214.008 33.6077C213.208 35.0675 213.868 37.192 215.481 38.353C217.094 39.514 219.05 39.2718 219.85 37.8121Z" fill="#2F2E41"/>
<path d="M214.095 36.7263C214.867 36.7265 215.624 36.981 216.273 37.4596C216.844 37.8639 217.32 38.4225 217.659 39.0864C216.887 39.0862 216.131 38.8317 215.481 38.3531C214.91 37.9488 214.434 37.3902 214.095 36.7263Z" fill="#2C3590"/>
<path d="M202.963 35.2749C201.718 35.2749 201.327 36.5412 201.564 37.8694C202.915 45.3058 202.383 53.0299 200.032 60.1315H207.56L208.97 56.3082L209.516 60.1315H219.373V56.2755C222.691 40.6564 215.655 33.034 202.963 35.2749Z" fill="#2F2E41"/>
<path d="M201.729 35.6108H200.972C200.233 35.6108 199.501 35.7777 198.818 36.102C198.135 36.4263 197.514 36.9015 196.992 37.5007C196.469 38.0999 196.054 38.8112 195.771 39.594C195.488 40.3769 195.343 41.2159 195.343 42.0633V44.3443L200.255 43.6577L200.618 41.993L200.959 43.5592L207.358 42.6648V42.0633C207.358 41.2159 207.212 40.3769 206.929 39.594C206.647 38.8112 206.232 38.0999 205.709 37.5007C205.186 36.9015 204.566 36.4263 203.883 36.102C203.2 35.7777 202.468 35.6108 201.729 35.6108Z" fill="#2F2E41"/>
<path opacity="0.2" d="M214.133 77.1897L211.202 102.046L208.129 102.23L214.133 77.1897Z" fill="black"/>
<path d="M211.103 107.117L205.28 127.139C205.28 127.139 193.15 142.711 199.943 142.711C206.736 142.711 210.132 128.807 210.132 128.807L218.381 108.785L211.103 107.117Z" fill="#FFB8B8"/>
<path d="M217.168 61.7898C217.168 61.7898 221.115 59.8316 223.511 64.7615C225.907 69.6914 224.931 88.4855 224.446 91.2663C223.961 94.0471 220.564 111.288 220.564 111.288L208.919 108.507C208.919 108.507 207.949 100.721 210.86 101.277L217.168 61.7898Z" fill="#2C3590"/>
<path d="M296.981 224.141H0V225H296.981V224.141Z" fill="#3F3D56"/>
</g>
<defs>
<clipPath id="clip0">
<rect width="298" height="225" fill="white"/>
</clipPath>
</defs>
</svg>
