<svg id="ea9cf52e-762c-4b41-ab9b-717db2cb422a" width="813" height="423.8" data-name="Layer 1" version="1.1" viewBox="0 0 813 423.8" xmlns="http://www.w3.org/2000/svg">
 <path d="m757.58 414.02a45.628 45.628 0 0 1-3.8999 7.7803c-0.43018 0.68018-0.88038 1.3501-1.3604 2h-39.84c-0.27978-0.21-0.5498-0.43018-0.83008-0.64014-1.3999-0.10986-2.79-0.25-4.1499-0.3999 0.14014-0.12012 0.29-0.24023 0.43018-0.35986-0.72022 0.0601-1.44 0.11963-2.1602 0.1499 0.56982 0.0698 1.1499 0.14014 1.73 0.21-0.43018 0.3501-0.87012 0.7002-1.3198 1.04h-1.7402l1.1699-1.25c-0.92968 0.0298-1.8501 0.0498-2.7798 0.0298l2.9102-0.77979 3.1396-0.83984c0.12012 0.0996 0.25 0.1997 0.37012 0.2998a53.22 53.22 0 0 0 3.6802-76.39 71.338 71.338 0 0 1 30.35 46.01 41.557 41.557 0 0 1 0.39991 13.8c0.35009-0.38964 0.6997-0.77978 1.0396-1.1797a54.16 54.16 0 0 0 11.44-44.59 71.381 71.381 0 0 1 1.4199 55.11z" fill="#e6e6e6"/>
 <circle cx="558.84" cy="51.483" r="28.082" fill="#2f2e41"/>
 <polygon points="631.81 364.81 649.91 364.81 649.91 412.1 637.65 412.1" fill="#ffb8b8"/>
 <path d="m628.89 408.6h23.644v14.887h-38.531a14.887 14.887 0 0 1 14.887-14.887z" fill="#2f2e41"/>
 <polygon points="519.68 360.13 537.16 364.84 524.84 410.49 513.01 407.3" fill="#ffb8b8"/>
 <path d="m505.46 401.64 22.829 6.1552-3.8755 14.374-37.202-10.031a14.887 14.887 0 0 1 18.249-10.498z" fill="#2f2e41"/>
 <path d="m548.08 193.3-36.506 206.87 18.721 3.7442 58.972-146.02 43.995 145.09 22.465-2.8082s-10.297-207.8-43.059-225.59z" fill="#2f2e41"/>
 <g fill="#ffb8b8">
  <path d="m490.18 267.3a10.056 10.056 0 0 0 3.5959-14.994l20.133-29.523-18.567-0.28816-16.272 28.08a10.11 10.11 0 0 0 11.111 16.726z"/>
  <path d="m623.1 230.79a10.056 10.056 0 0 0 3.5959-14.994l20.133-29.523-18.567-0.28816-16.272 28.08a10.11 10.11 0 0 0 11.111 16.726z"/>
  <circle cx="559.56" cy="60.564" r="24.561"/>
 </g>
 <g fill="#2c3590">
  <path d="m612.67 98.754c-0.93606-3.7442-16.849-2.8082-16.849-2.8082s-17.919-4.1195-17.749-3.6044c-15.1-1.1623-33.519 4.5066-36.202 5.3663-5.4886 1.5142-15.975 6.1462-23.538 9.5532a4.3807 4.3807 0 0 0-2.2109 5.7554l23.068 52.666 3.2762 34.166 75.821-23.401c-18.721-7.4885-4.6803-73.949-5.6164-77.693z"/>
  <polygon points="646.36 165.21 648.24 203.59 626.71 186.74 626.71 171.77 604.24 142.75 606.11 99.69 612.34 98.127"/>
  <path d="m524.21 104.84-7.2056 3.2025a2.5032 2.5032 0 0 0-1.449 1.8556l-14.279 81.527-14.041 41.187 18.721 9.3606 21.529-51.483 7.4885-37.442z"/>
 </g>
 <path d="m533.8 48.985c4.985-1.6368 10.244 0.92924 15.113 2.8827 4.7993 1.9252 9.9269 3.3126 15.089 3.0093s10.383-2.4833 13.504-6.6064 3.6701-10.302 0.58085-14.449c-2.0336-2.7298-5.2786-4.2874-8.5281-5.3016-6.9429-2.167-14.713-2.2418-21.313 0.81534s-11.775 9.5157-12.318 16.769" fill="#2f2e41"/>
 <path d="m558.09 29.421c-1.6744-11.336 4.5351-23.106 13.01-27.328s18.418-1.7315 26.053 4.5559c7.6348 6.2874 13.2 15.949 17.343 26.22s7.0107 21.271 10.386 31.983c2.9976 9.5131 6.5165 19.032 12.21 26.308s13.972 12.01 21.905 10.011c-6.5173 8.7627-18.507 7.2454-25.945-0.24973-7.4382-7.4952-11.305-19.21-14.349-30.614s-5.6922-23.335-11.58-32.785c-10.475-16.811-31.031-21.862-45.711-11.231" fill="#2f2e41"/>
 <rect y="421.8" width="813" height="2" fill="#3f3d56"/>
 <path d="m426.54 229.91h-354.82a10.728 10.728 0 0 1-10.716-10.716v-84.539a10.728 10.728 0 0 1 10.716-10.716h354.82a10.728 10.728 0 0 1 10.716 10.716v84.539a10.728 10.728 0 0 1-10.716 10.716zm-354.82-103.59a8.3449 8.3449 0 0 0-8.3348 8.3348v84.539a8.3449 8.3449 0 0 0 8.3348 8.3348h354.82a8.3449 8.3449 0 0 0 8.3348-8.3348v-84.539a8.3449 8.3449 0 0 0-8.3348-8.3348z" fill="#3f3d56"/>
 <path d="m409.28 212.05h-320.29a1.1907 1.1907 0 1 1 0-2.3814h320.29a1.1907 1.1907 0 1 1 0 2.3814z" fill="#e6e6e6"/>
 <path d="m122.92 172.76h-26.195a1.1907 1.1907 0 0 0 0 2.3814h11.907v21.054a5.9964 5.9964 0 0 0 5.543 6.0616c0.0744 3e-3 0.15116 5e-3 0.22907 5e-3a5.7616 5.7616 0 0 0 4.7058-2.593 1.1902 1.1902 0 0 0-1.9046-1.4279 3.379 3.379 0 0 1-2.9302 1.6372 3.5951 3.5951 0 0 1-3.2616-3.6825v-21.054h11.907a1.1907 1.1907 0 1 0 0-2.3814z" fill="#2c3590"/>
 <circle cx="212.22" cy="266.82" r="9.5255" fill="#e6e6e6"/>
 <circle cx="249.13" cy="266.82" r="9.5255" fill="#2c3590"/>
 <circle cx="286.04" cy="266.82" r="9.5255" fill="#e6e6e6"/>
 <g fill="#3f3d56">
  <path d="m128.48 201.37a1.5009 1.5009 0 0 0 0-3 1.5009 1.5009 0 0 0 0 3z"/>
  <path d="m138 201.37a1.5009 1.5009 0 0 0 0-3 1.5009 1.5009 0 0 0 0 3z"/>
  <path d="m147.53 201.37a1.5009 1.5009 0 0 0 0-3 1.5009 1.5009 0 0 0 0 3z"/>
 </g>
</svg>
