<svg width="32" height="32" viewBox="0 0 41 40" fill="none" xmlns="http://www.w3.org/2000/svg">
<path d="M11.2293 2.52911L10.889 1.5H9.80514H5H2.88168L3.58512 3.49811L12.0974 27.6773L12.4501 28.6792H13.5123H17.1772L17.3926 30.0288C17.777 32.4379 19.0047 34.4116 20.9574 35.754C22.8788 37.075 25.3986 37.7171 28.3034 37.7171C31.2947 37.7171 33.9734 36.9435 35.9467 35.4768C37.9485 33.989 39.1812 31.8081 39.1901 29.2109L39.1901 29.1989C39.1813 27.2744 38.5399 25.6071 37.1888 24.3103C35.8855 23.0593 34.0422 22.2686 31.8271 21.7874L31.8222 21.7864L31.6051 21.74L32.6586 21.625L37.3806 21.1099L38.9982 20.9334L38.6909 19.3355C38.2676 17.1342 37.1519 15.2598 35.3337 13.9566C33.5361 12.6683 31.1726 12.0231 28.375 12.0231C27.4762 12.0231 26.6075 12.0921 25.7803 12.2296L28.8583 3.49872L29.563 1.5H27.4437H22.6267H21.5422L21.2023 2.5299L16.2206 17.6248L11.2293 2.52911ZM23.7811 27.8128L20.1638 28.1612L20.3342 27.6779L20.9066 26.0543C21.9613 26.8083 23.2607 27.3518 24.7585 27.7187L23.7811 27.8128ZM25.1249 27.804C25.2044 27.8216 25.2844 27.8388 25.365 27.8554C25.3656 27.8556 25.3662 27.8557 25.3668 27.8558L29.1041 28.6404C30.0002 28.8381 30.4657 29.0814 30.6857 29.2684C30.8415 29.4008 30.8815 29.4993 30.8815 29.678C30.8815 29.8196 30.8233 30.0486 30.4341 30.3044C30.024 30.5741 29.3088 30.8108 28.2891 30.8108C27.307 30.8108 26.6487 30.5971 26.2285 30.3101C25.8345 30.0411 25.5356 29.6323 25.3884 28.9772L25.1249 27.804ZM31.0505 20.5346L31.3707 21.6899L28.0809 20.9867C27.0459 20.7539 26.5473 20.5007 26.3238 20.3148C26.23 20.2369 26.2012 20.1842 26.1891 20.1571C26.1758 20.1274 26.153 20.0611 26.1545 19.9218L26.1547 19.9062L26.1546 19.8905C26.1535 19.7772 26.1936 19.5796 26.5548 19.3439C26.936 19.0951 27.5844 18.8866 28.4465 18.8866C29.3591 18.8866 29.9399 19.1306 30.3073 19.4109C30.6816 19.6964 30.9273 20.0902 31.0505 20.5346Z" fill="white" stroke="#2C358E" strokeWidth="3"/>
</svg>
